<mxfile host="app.diagrams.net" modified="2024-05-26T22:02:47.531Z" agent="Mozilla/5.0 (Windows NT 10.0; Win64; x64) AppleWebKit/537.36 (KHTML, like Gecko) Chrome/123.0.0.0 Safari/537.36 OPR/109.0.0.0" etag="zlMT3iLzDvsWrqmObGRZ" version="24.4.8" type="github">
  <diagram name="Page-1" id="42789a77-a242-8287-6e28-9cd8cfd52e62">
    <mxGraphModel dx="10090" dy="5420" grid="1" gridSize="10" guides="1" tooltips="1" connect="1" arrows="1" fold="1" page="1" pageScale="1" pageWidth="3310" pageHeight="3390" background="none" math="0" shadow="0">
      <root>
        <mxCell id="0" />
        <mxCell id="1" parent="0" />
        <mxCell id="78cTH-3rYRoWqbKTk_js-3" value="" style="group" vertex="1" connectable="0" parent="1">
          <mxGeometry width="3310" height="3390" as="geometry" />
        </mxCell>
        <mxCell id="78cTH-3rYRoWqbKTk_js-2" value="" style="rounded=0;whiteSpace=wrap;html=1;fillColor=#f5f5f5;fontColor=#333333;strokeColor=#666666;" vertex="1" parent="78cTH-3rYRoWqbKTk_js-3">
          <mxGeometry width="3310" height="3390" as="geometry" />
        </mxCell>
        <mxCell id="TC_qHAJ1gJQiUCRcLyHj-588" value="" style="rounded=1;whiteSpace=wrap;html=1;fillColor=#f8cecc;strokeColor=#b85450;dashed=1;dashPattern=8 8;" parent="78cTH-3rYRoWqbKTk_js-3" vertex="1">
          <mxGeometry x="2260" y="705" width="1040" height="1595" as="geometry" />
        </mxCell>
        <mxCell id="TC_qHAJ1gJQiUCRcLyHj-587" value="" style="rounded=1;whiteSpace=wrap;html=1;fillColor=#dae8fc;strokeColor=#6c8ebf;dashed=1;dashPattern=12 12;" parent="78cTH-3rYRoWqbKTk_js-3" vertex="1">
          <mxGeometry x="100" y="2660" width="1740" height="730" as="geometry" />
        </mxCell>
        <mxCell id="TC_qHAJ1gJQiUCRcLyHj-584" value="" style="rounded=1;whiteSpace=wrap;html=1;fillColor=#d5e8d4;strokeColor=#82b366;dashed=1;dashPattern=12 12;" parent="78cTH-3rYRoWqbKTk_js-3" vertex="1">
          <mxGeometry x="100" y="2140" width="1740" height="520" as="geometry" />
        </mxCell>
        <mxCell id="TC_qHAJ1gJQiUCRcLyHj-582" value="" style="rounded=1;whiteSpace=wrap;html=1;fillColor=#fff2cc;strokeColor=#d6b656;dashed=1;dashPattern=8 8;" parent="78cTH-3rYRoWqbKTk_js-3" vertex="1">
          <mxGeometry x="100" y="25" width="1740" height="2115" as="geometry" />
        </mxCell>
        <mxCell id="TC_qHAJ1gJQiUCRcLyHj-21" style="edgeStyle=orthogonalEdgeStyle;rounded=0;orthogonalLoop=1;jettySize=auto;html=1;exitX=1;exitY=0.5;exitDx=0;exitDy=0;entryX=0;entryY=0.5;entryDx=0;entryDy=0;curved=1;" parent="78cTH-3rYRoWqbKTk_js-3" source="TC_qHAJ1gJQiUCRcLyHj-1" target="TC_qHAJ1gJQiUCRcLyHj-10" edge="1">
          <mxGeometry relative="1" as="geometry">
            <Array as="points">
              <mxPoint x="2100" y="1680" />
              <mxPoint x="2295" y="1680" />
              <mxPoint x="2295" y="2080" />
            </Array>
          </mxGeometry>
        </mxCell>
        <mxCell id="TC_qHAJ1gJQiUCRcLyHj-301" style="edgeStyle=orthogonalEdgeStyle;curved=1;rounded=0;orthogonalLoop=1;jettySize=auto;html=1;exitX=1;exitY=0.5;exitDx=0;exitDy=0;entryX=0;entryY=0.5;entryDx=0;entryDy=0;strokeColor=default;align=center;verticalAlign=middle;fontFamily=Helvetica;fontSize=11;fontColor=default;labelBackgroundColor=default;resizable=0;endArrow=classic;" parent="78cTH-3rYRoWqbKTk_js-3" source="TC_qHAJ1gJQiUCRcLyHj-1" target="TC_qHAJ1gJQiUCRcLyHj-253" edge="1">
          <mxGeometry relative="1" as="geometry">
            <Array as="points">
              <mxPoint x="2100" y="1680" />
              <mxPoint x="2310" y="1680" />
              <mxPoint x="2310" y="1290" />
            </Array>
          </mxGeometry>
        </mxCell>
        <mxCell id="TC_qHAJ1gJQiUCRcLyHj-302" style="edgeStyle=orthogonalEdgeStyle;curved=1;rounded=0;orthogonalLoop=1;jettySize=auto;html=1;exitX=1;exitY=0.5;exitDx=0;exitDy=0;entryX=0;entryY=0.5;entryDx=0;entryDy=0;strokeColor=default;align=center;verticalAlign=middle;fontFamily=Helvetica;fontSize=11;fontColor=default;labelBackgroundColor=default;resizable=0;endArrow=classic;" parent="78cTH-3rYRoWqbKTk_js-3" source="TC_qHAJ1gJQiUCRcLyHj-1" target="TC_qHAJ1gJQiUCRcLyHj-279" edge="1">
          <mxGeometry relative="1" as="geometry">
            <Array as="points">
              <mxPoint x="2100" y="1680" />
              <mxPoint x="2295" y="1680" />
              <mxPoint x="2295" y="910" />
            </Array>
          </mxGeometry>
        </mxCell>
        <mxCell id="TC_qHAJ1gJQiUCRcLyHj-306" style="edgeStyle=orthogonalEdgeStyle;curved=1;rounded=0;orthogonalLoop=1;jettySize=auto;html=1;exitX=1;exitY=0.5;exitDx=0;exitDy=0;entryX=0;entryY=0.5;entryDx=0;entryDy=0;strokeColor=default;align=center;verticalAlign=middle;fontFamily=Helvetica;fontSize=11;fontColor=default;labelBackgroundColor=default;resizable=0;endArrow=classic;" parent="78cTH-3rYRoWqbKTk_js-3" source="TC_qHAJ1gJQiUCRcLyHj-1" target="TC_qHAJ1gJQiUCRcLyHj-124" edge="1">
          <mxGeometry relative="1" as="geometry" />
        </mxCell>
        <mxCell id="TC_qHAJ1gJQiUCRcLyHj-309" style="edgeStyle=orthogonalEdgeStyle;curved=1;rounded=0;orthogonalLoop=1;jettySize=auto;html=1;exitX=0;exitY=0.5;exitDx=0;exitDy=0;entryX=1;entryY=0.5;entryDx=0;entryDy=0;strokeColor=default;align=center;verticalAlign=middle;fontFamily=Helvetica;fontSize=11;fontColor=default;labelBackgroundColor=default;resizable=0;endArrow=classic;" parent="78cTH-3rYRoWqbKTk_js-3" source="TC_qHAJ1gJQiUCRcLyHj-1" target="TC_qHAJ1gJQiUCRcLyHj-308" edge="1">
          <mxGeometry relative="1" as="geometry">
            <mxPoint x="1790" y="505" as="sourcePoint" />
            <Array as="points">
              <mxPoint x="1980" y="1680" />
              <mxPoint x="1870" y="1680" />
              <mxPoint x="1870" y="790" />
            </Array>
          </mxGeometry>
        </mxCell>
        <mxCell id="TC_qHAJ1gJQiUCRcLyHj-469" style="edgeStyle=orthogonalEdgeStyle;curved=1;rounded=0;orthogonalLoop=1;jettySize=auto;html=1;exitX=0;exitY=0.5;exitDx=0;exitDy=0;entryX=1;entryY=0.5;entryDx=0;entryDy=0;strokeColor=default;align=center;verticalAlign=middle;fontFamily=Helvetica;fontSize=11;fontColor=default;labelBackgroundColor=default;resizable=0;endArrow=classic;" parent="78cTH-3rYRoWqbKTk_js-3" source="TC_qHAJ1gJQiUCRcLyHj-1" target="TC_qHAJ1gJQiUCRcLyHj-401" edge="1">
          <mxGeometry relative="1" as="geometry">
            <Array as="points">
              <mxPoint x="1980" y="1680" />
              <mxPoint x="1860" y="1680" />
              <mxPoint x="1860" y="2490" />
            </Array>
          </mxGeometry>
        </mxCell>
        <mxCell id="TC_qHAJ1gJQiUCRcLyHj-573" style="edgeStyle=orthogonalEdgeStyle;curved=1;rounded=0;orthogonalLoop=1;jettySize=auto;html=1;exitX=0;exitY=0.5;exitDx=0;exitDy=0;entryX=1;entryY=0.5;entryDx=0;entryDy=0;strokeColor=default;align=center;verticalAlign=middle;fontFamily=Helvetica;fontSize=11;fontColor=default;labelBackgroundColor=default;resizable=0;endArrow=classic;" parent="78cTH-3rYRoWqbKTk_js-3" source="TC_qHAJ1gJQiUCRcLyHj-1" target="TC_qHAJ1gJQiUCRcLyHj-470" edge="1">
          <mxGeometry relative="1" as="geometry">
            <Array as="points">
              <mxPoint x="1980" y="1680" />
              <mxPoint x="1880" y="1680" />
              <mxPoint x="1880" y="2920" />
            </Array>
          </mxGeometry>
        </mxCell>
        <mxCell id="TC_qHAJ1gJQiUCRcLyHj-1" value="&lt;p&gt;&lt;b&gt;&lt;font style=&quot;font-size: 19px;&quot;&gt;Medição de Movimento&lt;/font&gt;&lt;/b&gt;&lt;/p&gt;" style="ellipse;whiteSpace=wrap;html=1;" parent="78cTH-3rYRoWqbKTk_js-3" vertex="1">
          <mxGeometry x="1980" y="1645" width="120" height="80" as="geometry" />
        </mxCell>
        <mxCell id="TC_qHAJ1gJQiUCRcLyHj-23" value="&lt;font style=&quot;font-size: 14px;&quot;&gt;significa&lt;/font&gt;" style="edgeStyle=orthogonalEdgeStyle;curved=1;rounded=0;orthogonalLoop=1;jettySize=auto;html=1;strokeColor=default;align=center;verticalAlign=middle;fontFamily=Helvetica;fontSize=11;fontColor=default;labelBackgroundColor=default;endArrow=classic;entryX=0;entryY=0.5;entryDx=0;entryDy=0;" parent="78cTH-3rYRoWqbKTk_js-3" source="TC_qHAJ1gJQiUCRcLyHj-10" target="TC_qHAJ1gJQiUCRcLyHj-22" edge="1">
          <mxGeometry x="0.4615" y="10" relative="1" as="geometry">
            <mxPoint x="1" as="offset" />
          </mxGeometry>
        </mxCell>
        <mxCell id="TC_qHAJ1gJQiUCRcLyHj-35" value="&lt;font style=&quot;font-size: 14px;&quot;&gt;medida em: m&lt;/font&gt;" style="edgeStyle=orthogonalEdgeStyle;curved=1;rounded=0;orthogonalLoop=1;jettySize=auto;html=1;exitX=1;exitY=0.5;exitDx=0;exitDy=0;strokeColor=default;align=center;verticalAlign=middle;fontFamily=Helvetica;fontSize=11;fontColor=default;labelBackgroundColor=default;endArrow=classic;" parent="78cTH-3rYRoWqbKTk_js-3" source="TC_qHAJ1gJQiUCRcLyHj-10" edge="1">
          <mxGeometry x="1" y="50" relative="1" as="geometry">
            <mxPoint x="2650" y="2175" as="targetPoint" />
            <Array as="points">
              <mxPoint x="2540" y="2085" />
              <mxPoint x="2540" y="2175" />
            </Array>
            <mxPoint x="50" y="50" as="offset" />
          </mxGeometry>
        </mxCell>
        <mxCell id="TC_qHAJ1gJQiUCRcLyHj-37" value="&lt;font style=&quot;font-size: 14px;&quot;&gt;tem mnemônico de&lt;/font&gt;" style="edgeStyle=orthogonalEdgeStyle;curved=1;rounded=0;orthogonalLoop=1;jettySize=auto;html=1;exitX=1;exitY=0.5;exitDx=0;exitDy=0;strokeColor=default;align=center;verticalAlign=middle;fontFamily=Helvetica;fontSize=11;fontColor=default;labelBackgroundColor=default;endArrow=none;endFill=0;" parent="78cTH-3rYRoWqbKTk_js-3" source="TC_qHAJ1gJQiUCRcLyHj-10" edge="1">
          <mxGeometry x="0.3332" relative="1" as="geometry">
            <mxPoint x="2660" y="2015" as="targetPoint" />
            <Array as="points">
              <mxPoint x="2480" y="2015" />
            </Array>
            <mxPoint as="offset" />
          </mxGeometry>
        </mxCell>
        <mxCell id="TC_qHAJ1gJQiUCRcLyHj-243" value="&lt;font style=&quot;font-size: 14px;&quot;&gt;usado para&lt;/font&gt;" style="edgeStyle=orthogonalEdgeStyle;curved=1;rounded=0;orthogonalLoop=1;jettySize=auto;html=1;strokeColor=default;align=center;verticalAlign=middle;fontFamily=Helvetica;fontSize=11;fontColor=default;labelBackgroundColor=default;resizable=0;endArrow=classic;entryX=0;entryY=0.5;entryDx=0;entryDy=0;" parent="78cTH-3rYRoWqbKTk_js-3" source="TC_qHAJ1gJQiUCRcLyHj-10" target="TC_qHAJ1gJQiUCRcLyHj-242" edge="1">
          <mxGeometry x="-0.062" y="10" relative="1" as="geometry">
            <Array as="points">
              <mxPoint x="2520" y="2085" />
              <mxPoint x="2520" y="2235" />
            </Array>
            <mxPoint as="offset" />
          </mxGeometry>
        </mxCell>
        <mxCell id="TC_qHAJ1gJQiUCRcLyHj-10" value="&lt;font style=&quot;font-size: 16px;&quot;&gt;&lt;b&gt;Posição&lt;/b&gt;&lt;/font&gt;" style="rounded=1;whiteSpace=wrap;html=1;" parent="78cTH-3rYRoWqbKTk_js-3" vertex="1">
          <mxGeometry x="2360" y="2055" width="120" height="60" as="geometry" />
        </mxCell>
        <mxCell id="TC_qHAJ1gJQiUCRcLyHj-22" value="&lt;font style=&quot;font-size: 14px;&quot;&gt;A posição de um objeto em relação a um referencial.&lt;/font&gt;" style="whiteSpace=wrap;html=1;rounded=1;" parent="78cTH-3rYRoWqbKTk_js-3" vertex="1">
          <mxGeometry x="2660" y="2105" width="120" height="60" as="geometry" />
        </mxCell>
        <mxCell id="TC_qHAJ1gJQiUCRcLyHj-41" value="" style="endArrow=classic;html=1;rounded=0;strokeColor=default;align=center;verticalAlign=middle;fontFamily=Helvetica;fontSize=11;fontColor=default;labelBackgroundColor=default;edgeStyle=orthogonalEdgeStyle;curved=1;" parent="78cTH-3rYRoWqbKTk_js-3" edge="1">
          <mxGeometry relative="1" as="geometry">
            <mxPoint x="2660" y="2013.82" as="sourcePoint" />
            <mxPoint x="2780" y="1915" as="targetPoint" />
            <Array as="points">
              <mxPoint x="2660" y="1915" />
            </Array>
          </mxGeometry>
        </mxCell>
        <mxCell id="TC_qHAJ1gJQiUCRcLyHj-42" value="&lt;font style=&quot;font-size: 14px;&quot;&gt;Elemento Primário: ZE&lt;/font&gt;" style="edgeLabel;resizable=0;html=1;;align=center;verticalAlign=middle;fontFamily=Helvetica;fontSize=11;fontColor=default;labelBackgroundColor=default;" parent="TC_qHAJ1gJQiUCRcLyHj-41" connectable="0" vertex="1">
          <mxGeometry relative="1" as="geometry">
            <mxPoint x="189" as="offset" />
          </mxGeometry>
        </mxCell>
        <mxCell id="TC_qHAJ1gJQiUCRcLyHj-43" value="" style="endArrow=classic;html=1;rounded=0;strokeColor=default;align=center;verticalAlign=middle;fontFamily=Helvetica;fontSize=11;fontColor=default;labelBackgroundColor=default;edgeStyle=orthogonalEdgeStyle;curved=1;" parent="78cTH-3rYRoWqbKTk_js-3" edge="1">
          <mxGeometry relative="1" as="geometry">
            <mxPoint x="2660" y="2015" as="sourcePoint" />
            <mxPoint x="2780" y="1945" as="targetPoint" />
            <Array as="points">
              <mxPoint x="2660" y="1945" />
              <mxPoint x="2780" y="1945" />
            </Array>
          </mxGeometry>
        </mxCell>
        <mxCell id="TC_qHAJ1gJQiUCRcLyHj-44" value="&lt;font style=&quot;font-size: 14px;&quot;&gt;Transmissor com Indicação: ZIT&lt;/font&gt;" style="edgeLabel;resizable=0;html=1;;align=center;verticalAlign=middle;fontFamily=Helvetica;fontSize=11;fontColor=default;labelBackgroundColor=default;" parent="TC_qHAJ1gJQiUCRcLyHj-43" connectable="0" vertex="1">
          <mxGeometry relative="1" as="geometry">
            <mxPoint x="195" as="offset" />
          </mxGeometry>
        </mxCell>
        <mxCell id="TC_qHAJ1gJQiUCRcLyHj-45" value="" style="endArrow=classic;html=1;rounded=0;strokeColor=default;align=center;verticalAlign=middle;fontFamily=Helvetica;fontSize=11;fontColor=default;labelBackgroundColor=default;edgeStyle=orthogonalEdgeStyle;curved=1;" parent="78cTH-3rYRoWqbKTk_js-3" edge="1">
          <mxGeometry relative="1" as="geometry">
            <mxPoint x="2660" y="2015" as="sourcePoint" />
            <mxPoint x="2780" y="1975" as="targetPoint" />
            <Array as="points">
              <mxPoint x="2660" y="1975" />
              <mxPoint x="2780" y="1975" />
            </Array>
          </mxGeometry>
        </mxCell>
        <mxCell id="TC_qHAJ1gJQiUCRcLyHj-46" value="&lt;font style=&quot;font-size: 14px;&quot;&gt;Transmissor com Registro: ZRT&lt;/font&gt;" style="edgeLabel;resizable=0;html=1;;align=center;verticalAlign=middle;fontFamily=Helvetica;fontSize=11;fontColor=default;labelBackgroundColor=default;" parent="TC_qHAJ1gJQiUCRcLyHj-45" connectable="0" vertex="1">
          <mxGeometry relative="1" as="geometry">
            <mxPoint x="180" as="offset" />
          </mxGeometry>
        </mxCell>
        <mxCell id="TC_qHAJ1gJQiUCRcLyHj-49" value="" style="endArrow=classic;html=1;rounded=0;strokeColor=default;align=center;verticalAlign=middle;fontFamily=Helvetica;fontSize=11;fontColor=default;labelBackgroundColor=default;edgeStyle=orthogonalEdgeStyle;curved=1;" parent="78cTH-3rYRoWqbKTk_js-3" edge="1">
          <mxGeometry relative="1" as="geometry">
            <mxPoint x="2660" y="2015" as="sourcePoint" />
            <mxPoint x="2780" y="1995" as="targetPoint" />
            <Array as="points">
              <mxPoint x="2660" y="1995" />
              <mxPoint x="2780" y="1995" />
            </Array>
          </mxGeometry>
        </mxCell>
        <mxCell id="TC_qHAJ1gJQiUCRcLyHj-50" value="&lt;font style=&quot;font-size: 14px;&quot;&gt;Controlador com Indicação: ZIC&lt;/font&gt;" style="edgeLabel;resizable=0;html=1;;align=center;verticalAlign=middle;fontFamily=Helvetica;fontSize=11;fontColor=default;labelBackgroundColor=default;" parent="TC_qHAJ1gJQiUCRcLyHj-49" connectable="0" vertex="1">
          <mxGeometry relative="1" as="geometry">
            <mxPoint x="169" as="offset" />
          </mxGeometry>
        </mxCell>
        <mxCell id="TC_qHAJ1gJQiUCRcLyHj-51" value="" style="endArrow=classic;html=1;rounded=0;strokeColor=default;align=center;verticalAlign=middle;fontFamily=Helvetica;fontSize=11;fontColor=default;labelBackgroundColor=default;edgeStyle=orthogonalEdgeStyle;curved=1;" parent="78cTH-3rYRoWqbKTk_js-3" edge="1">
          <mxGeometry relative="1" as="geometry">
            <mxPoint x="2660" y="2015" as="sourcePoint" />
            <mxPoint x="2780" y="2015" as="targetPoint" />
            <Array as="points">
              <mxPoint x="2660" y="2015" />
            </Array>
          </mxGeometry>
        </mxCell>
        <mxCell id="TC_qHAJ1gJQiUCRcLyHj-52" value="&lt;font style=&quot;font-size: 14px;&quot;&gt;Alarme Baixo: ZSL&lt;/font&gt;" style="edgeLabel;resizable=0;html=1;;align=center;verticalAlign=middle;fontFamily=Helvetica;fontSize=11;fontColor=default;labelBackgroundColor=default;" parent="TC_qHAJ1gJQiUCRcLyHj-51" connectable="0" vertex="1">
          <mxGeometry relative="1" as="geometry">
            <mxPoint x="120" as="offset" />
          </mxGeometry>
        </mxCell>
        <mxCell id="TC_qHAJ1gJQiUCRcLyHj-53" value="" style="endArrow=classic;html=1;rounded=0;strokeColor=default;align=center;verticalAlign=middle;fontFamily=Helvetica;fontSize=11;fontColor=default;labelBackgroundColor=default;edgeStyle=orthogonalEdgeStyle;curved=1;" parent="78cTH-3rYRoWqbKTk_js-3" edge="1">
          <mxGeometry relative="1" as="geometry">
            <mxPoint x="2660" y="2015" as="sourcePoint" />
            <mxPoint x="2780" y="2045" as="targetPoint" />
            <Array as="points">
              <mxPoint x="2660" y="2045" />
              <mxPoint x="2780" y="2045" />
            </Array>
          </mxGeometry>
        </mxCell>
        <mxCell id="TC_qHAJ1gJQiUCRcLyHj-54" value="&lt;font style=&quot;font-size: 14px;&quot;&gt;Alarme Alto: ZHL&lt;/font&gt;" style="edgeLabel;resizable=0;html=1;;align=center;verticalAlign=middle;fontFamily=Helvetica;fontSize=11;fontColor=default;labelBackgroundColor=default;" parent="TC_qHAJ1gJQiUCRcLyHj-53" connectable="0" vertex="1">
          <mxGeometry relative="1" as="geometry">
            <mxPoint x="125" as="offset" />
          </mxGeometry>
        </mxCell>
        <mxCell id="TC_qHAJ1gJQiUCRcLyHj-55" value="" style="endArrow=classic;html=1;rounded=0;strokeColor=default;align=center;verticalAlign=middle;fontFamily=Helvetica;fontSize=11;fontColor=default;labelBackgroundColor=default;edgeStyle=orthogonalEdgeStyle;curved=1;" parent="78cTH-3rYRoWqbKTk_js-3" edge="1">
          <mxGeometry relative="1" as="geometry">
            <mxPoint x="2660" y="2015" as="sourcePoint" />
            <mxPoint x="2780" y="2075" as="targetPoint" />
            <Array as="points">
              <mxPoint x="2660" y="2075" />
              <mxPoint x="2780" y="2075" />
            </Array>
          </mxGeometry>
        </mxCell>
        <mxCell id="TC_qHAJ1gJQiUCRcLyHj-56" value="&lt;font style=&quot;font-size: 14px;&quot;&gt;Chave de Detecção de Alto e Baixo: ZSHL&lt;/font&gt;" style="edgeLabel;resizable=0;html=1;;align=center;verticalAlign=middle;fontFamily=Helvetica;fontSize=11;fontColor=default;labelBackgroundColor=default;" parent="TC_qHAJ1gJQiUCRcLyHj-55" connectable="0" vertex="1">
          <mxGeometry relative="1" as="geometry">
            <mxPoint x="219" as="offset" />
          </mxGeometry>
        </mxCell>
        <mxCell id="TC_qHAJ1gJQiUCRcLyHj-57" value="" style="endArrow=classic;html=1;rounded=0;strokeColor=default;align=center;verticalAlign=middle;fontFamily=Helvetica;fontSize=11;fontColor=default;labelBackgroundColor=default;edgeStyle=orthogonalEdgeStyle;curved=1;" parent="78cTH-3rYRoWqbKTk_js-3" edge="1">
          <mxGeometry relative="1" as="geometry">
            <mxPoint x="2660" y="2015" as="sourcePoint" />
            <mxPoint x="2780" y="2095" as="targetPoint" />
            <Array as="points">
              <mxPoint x="2660" y="2095" />
              <mxPoint x="2780" y="2095" />
            </Array>
          </mxGeometry>
        </mxCell>
        <mxCell id="TC_qHAJ1gJQiUCRcLyHj-58" value="&lt;font style=&quot;font-size: 14px;&quot;&gt;Elemento Final de Controle: ZV&lt;/font&gt;" style="edgeLabel;resizable=0;html=1;;align=center;verticalAlign=middle;fontFamily=Helvetica;fontSize=11;fontColor=default;labelBackgroundColor=default;" parent="TC_qHAJ1gJQiUCRcLyHj-57" connectable="0" vertex="1">
          <mxGeometry relative="1" as="geometry">
            <mxPoint x="200" as="offset" />
          </mxGeometry>
        </mxCell>
        <mxCell id="TC_qHAJ1gJQiUCRcLyHj-64" value="" style="endArrow=classic;html=1;rounded=0;strokeColor=default;align=center;verticalAlign=middle;fontFamily=Helvetica;fontSize=11;fontColor=default;labelBackgroundColor=default;resizable=0;edgeStyle=orthogonalEdgeStyle;curved=1;entryX=0;entryY=0.5;entryDx=0;entryDy=0;" parent="78cTH-3rYRoWqbKTk_js-3" target="TC_qHAJ1gJQiUCRcLyHj-119" edge="1">
          <mxGeometry relative="1" as="geometry">
            <mxPoint x="2980" y="2095" as="sourcePoint" />
            <mxPoint x="3140" y="2095" as="targetPoint" />
          </mxGeometry>
        </mxCell>
        <mxCell id="TC_qHAJ1gJQiUCRcLyHj-65" value="&lt;font style=&quot;font-size: 14px;&quot;&gt;Corresponde a&lt;/font&gt;" style="edgeLabel;resizable=0;html=1;;align=center;verticalAlign=middle;fontFamily=Helvetica;fontSize=11;fontColor=default;labelBackgroundColor=default;fillColor=none;gradientColor=none;" parent="TC_qHAJ1gJQiUCRcLyHj-64" connectable="0" vertex="1">
          <mxGeometry relative="1" as="geometry" />
        </mxCell>
        <mxCell id="TC_qHAJ1gJQiUCRcLyHj-119" value="&lt;span style=&quot;font-size: 14px; text-align: left; text-wrap: nowrap; background-color: rgb(255, 255, 255);&quot;&gt;Driver, Atuador,&lt;/span&gt;&lt;br style=&quot;font-size: 14px; text-align: left; text-wrap: nowrap; background-color: rgb(255, 255, 255);&quot;&gt;&lt;span style=&quot;font-size: 14px; text-align: left; text-wrap: nowrap; background-color: rgb(255, 255, 255);&quot;&gt;Elemento Final&lt;/span&gt;&lt;div&gt;&lt;span style=&quot;font-size: 14px; text-align: left; text-wrap: nowrap; background-color: rgb(255, 255, 255);&quot;&gt;&amp;nbsp;não Classificado&lt;/span&gt;&lt;/div&gt;" style="whiteSpace=wrap;html=1;rounded=1;" parent="78cTH-3rYRoWqbKTk_js-3" vertex="1">
          <mxGeometry x="3140" y="2065" width="120" height="60" as="geometry" />
        </mxCell>
        <mxCell id="TC_qHAJ1gJQiUCRcLyHj-121" value="&lt;font style=&quot;font-size: 14px;&quot;&gt;significa&lt;/font&gt;" style="edgeStyle=orthogonalEdgeStyle;curved=1;rounded=0;orthogonalLoop=1;jettySize=auto;html=1;strokeColor=default;align=center;verticalAlign=middle;fontFamily=Helvetica;fontSize=11;fontColor=default;labelBackgroundColor=default;endArrow=classic;entryX=0;entryY=0.5;entryDx=0;entryDy=0;" parent="78cTH-3rYRoWqbKTk_js-3" source="TC_qHAJ1gJQiUCRcLyHj-124" target="TC_qHAJ1gJQiUCRcLyHj-125" edge="1">
          <mxGeometry x="0.4615" y="10" relative="1" as="geometry">
            <mxPoint x="1" as="offset" />
          </mxGeometry>
        </mxCell>
        <mxCell id="TC_qHAJ1gJQiUCRcLyHj-122" value="&lt;font style=&quot;font-size: 14px;&quot;&gt;medida em: m&lt;/font&gt;" style="edgeStyle=orthogonalEdgeStyle;curved=1;rounded=0;orthogonalLoop=1;jettySize=auto;html=1;exitX=1;exitY=0.5;exitDx=0;exitDy=0;strokeColor=default;align=center;verticalAlign=middle;fontFamily=Helvetica;fontSize=11;fontColor=default;labelBackgroundColor=default;endArrow=classic;" parent="78cTH-3rYRoWqbKTk_js-3" source="TC_qHAJ1gJQiUCRcLyHj-124" edge="1">
          <mxGeometry x="0.9996" y="-50" relative="1" as="geometry">
            <mxPoint x="2650" y="1785" as="targetPoint" />
            <Array as="points">
              <mxPoint x="2540" y="1665" />
              <mxPoint x="2540" y="1785" />
              <mxPoint x="2650" y="1785" />
            </Array>
            <mxPoint x="50" y="50" as="offset" />
          </mxGeometry>
        </mxCell>
        <mxCell id="TC_qHAJ1gJQiUCRcLyHj-123" value="&lt;font style=&quot;font-size: 14px;&quot;&gt;tem mnemônico de&lt;/font&gt;" style="edgeStyle=orthogonalEdgeStyle;curved=1;rounded=0;orthogonalLoop=1;jettySize=auto;html=1;exitX=1;exitY=0.5;exitDx=0;exitDy=0;strokeColor=default;align=center;verticalAlign=middle;fontFamily=Helvetica;fontSize=11;fontColor=default;labelBackgroundColor=default;endArrow=none;endFill=0;" parent="78cTH-3rYRoWqbKTk_js-3" source="TC_qHAJ1gJQiUCRcLyHj-124" edge="1">
          <mxGeometry x="0.3332" relative="1" as="geometry">
            <mxPoint x="2660" y="1595" as="targetPoint" />
            <Array as="points">
              <mxPoint x="2480" y="1595" />
            </Array>
            <mxPoint as="offset" />
          </mxGeometry>
        </mxCell>
        <mxCell id="TC_qHAJ1gJQiUCRcLyHj-124" value="&lt;font style=&quot;font-size: 16px;&quot;&gt;&lt;b&gt;Deslocamento&lt;/b&gt;&lt;/font&gt;" style="rounded=1;whiteSpace=wrap;html=1;" parent="78cTH-3rYRoWqbKTk_js-3" vertex="1">
          <mxGeometry x="2360" y="1635" width="120" height="60" as="geometry" />
        </mxCell>
        <mxCell id="TC_qHAJ1gJQiUCRcLyHj-125" value="&lt;font style=&quot;font-size: 14px;&quot;&gt;Variação da posição de um objeto.&lt;/font&gt;" style="whiteSpace=wrap;html=1;rounded=1;" parent="78cTH-3rYRoWqbKTk_js-3" vertex="1">
          <mxGeometry x="2660" y="1715" width="120" height="60" as="geometry" />
        </mxCell>
        <mxCell id="TC_qHAJ1gJQiUCRcLyHj-126" value="" style="endArrow=classic;html=1;rounded=0;strokeColor=default;align=center;verticalAlign=middle;fontFamily=Helvetica;fontSize=11;fontColor=default;labelBackgroundColor=default;edgeStyle=orthogonalEdgeStyle;curved=1;" parent="78cTH-3rYRoWqbKTk_js-3" edge="1">
          <mxGeometry relative="1" as="geometry">
            <mxPoint x="2660" y="1593.8199999999997" as="sourcePoint" />
            <mxPoint x="2780" y="1495" as="targetPoint" />
            <Array as="points">
              <mxPoint x="2660" y="1495" />
            </Array>
          </mxGeometry>
        </mxCell>
        <mxCell id="TC_qHAJ1gJQiUCRcLyHj-127" value="&lt;font style=&quot;font-size: 14px;&quot;&gt;Elemento Primário: ZKE&lt;/font&gt;" style="edgeLabel;resizable=0;html=1;;align=center;verticalAlign=middle;fontFamily=Helvetica;fontSize=11;fontColor=default;labelBackgroundColor=default;" parent="TC_qHAJ1gJQiUCRcLyHj-126" connectable="0" vertex="1">
          <mxGeometry relative="1" as="geometry">
            <mxPoint x="189" as="offset" />
          </mxGeometry>
        </mxCell>
        <mxCell id="TC_qHAJ1gJQiUCRcLyHj-128" value="" style="endArrow=classic;html=1;rounded=0;strokeColor=default;align=center;verticalAlign=middle;fontFamily=Helvetica;fontSize=11;fontColor=default;labelBackgroundColor=default;edgeStyle=orthogonalEdgeStyle;curved=1;" parent="78cTH-3rYRoWqbKTk_js-3" edge="1">
          <mxGeometry relative="1" as="geometry">
            <mxPoint x="2660" y="1595" as="sourcePoint" />
            <mxPoint x="2780" y="1525" as="targetPoint" />
            <Array as="points">
              <mxPoint x="2660" y="1525" />
              <mxPoint x="2780" y="1525" />
            </Array>
          </mxGeometry>
        </mxCell>
        <mxCell id="TC_qHAJ1gJQiUCRcLyHj-129" value="&lt;font style=&quot;font-size: 14px;&quot;&gt;Transmissor com Indicação: ZKIT&lt;/font&gt;" style="edgeLabel;resizable=0;html=1;;align=center;verticalAlign=middle;fontFamily=Helvetica;fontSize=11;fontColor=default;labelBackgroundColor=default;" parent="TC_qHAJ1gJQiUCRcLyHj-128" connectable="0" vertex="1">
          <mxGeometry relative="1" as="geometry">
            <mxPoint x="205" as="offset" />
          </mxGeometry>
        </mxCell>
        <mxCell id="TC_qHAJ1gJQiUCRcLyHj-130" value="" style="endArrow=classic;html=1;rounded=0;strokeColor=default;align=center;verticalAlign=middle;fontFamily=Helvetica;fontSize=11;fontColor=default;labelBackgroundColor=default;edgeStyle=orthogonalEdgeStyle;curved=1;" parent="78cTH-3rYRoWqbKTk_js-3" edge="1">
          <mxGeometry relative="1" as="geometry">
            <mxPoint x="2660" y="1595" as="sourcePoint" />
            <mxPoint x="2780" y="1555" as="targetPoint" />
            <Array as="points">
              <mxPoint x="2660" y="1555" />
              <mxPoint x="2780" y="1555" />
            </Array>
          </mxGeometry>
        </mxCell>
        <mxCell id="TC_qHAJ1gJQiUCRcLyHj-131" value="&lt;font style=&quot;font-size: 14px;&quot;&gt;Transmissor com Registro: ZKRT&lt;/font&gt;" style="edgeLabel;resizable=0;html=1;;align=center;verticalAlign=middle;fontFamily=Helvetica;fontSize=11;fontColor=default;labelBackgroundColor=default;" parent="TC_qHAJ1gJQiUCRcLyHj-130" connectable="0" vertex="1">
          <mxGeometry relative="1" as="geometry">
            <mxPoint x="190" as="offset" />
          </mxGeometry>
        </mxCell>
        <mxCell id="TC_qHAJ1gJQiUCRcLyHj-132" value="" style="endArrow=classic;html=1;rounded=0;strokeColor=default;align=center;verticalAlign=middle;fontFamily=Helvetica;fontSize=11;fontColor=default;labelBackgroundColor=default;edgeStyle=orthogonalEdgeStyle;curved=1;" parent="78cTH-3rYRoWqbKTk_js-3" edge="1">
          <mxGeometry relative="1" as="geometry">
            <mxPoint x="2660" y="1595" as="sourcePoint" />
            <mxPoint x="2780" y="1575" as="targetPoint" />
            <Array as="points">
              <mxPoint x="2660" y="1575" />
              <mxPoint x="2780" y="1575" />
            </Array>
          </mxGeometry>
        </mxCell>
        <mxCell id="TC_qHAJ1gJQiUCRcLyHj-133" value="&lt;font style=&quot;font-size: 14px;&quot;&gt;Controlador com Indicação: ZKIC&lt;/font&gt;" style="edgeLabel;resizable=0;html=1;;align=center;verticalAlign=middle;fontFamily=Helvetica;fontSize=11;fontColor=default;labelBackgroundColor=default;" parent="TC_qHAJ1gJQiUCRcLyHj-132" connectable="0" vertex="1">
          <mxGeometry relative="1" as="geometry">
            <mxPoint x="180" as="offset" />
          </mxGeometry>
        </mxCell>
        <mxCell id="TC_qHAJ1gJQiUCRcLyHj-134" value="" style="endArrow=classic;html=1;rounded=0;strokeColor=default;align=center;verticalAlign=middle;fontFamily=Helvetica;fontSize=11;fontColor=default;labelBackgroundColor=default;edgeStyle=orthogonalEdgeStyle;curved=1;" parent="78cTH-3rYRoWqbKTk_js-3" edge="1">
          <mxGeometry relative="1" as="geometry">
            <mxPoint x="2660" y="1595" as="sourcePoint" />
            <mxPoint x="2780" y="1595" as="targetPoint" />
            <Array as="points">
              <mxPoint x="2660" y="1595" />
            </Array>
          </mxGeometry>
        </mxCell>
        <mxCell id="TC_qHAJ1gJQiUCRcLyHj-135" value="&lt;font style=&quot;font-size: 14px;&quot;&gt;Alarme Baixo: ZKSL&lt;/font&gt;" style="edgeLabel;resizable=0;html=1;;align=center;verticalAlign=middle;fontFamily=Helvetica;fontSize=11;fontColor=default;labelBackgroundColor=default;" parent="TC_qHAJ1gJQiUCRcLyHj-134" connectable="0" vertex="1">
          <mxGeometry relative="1" as="geometry">
            <mxPoint x="130" as="offset" />
          </mxGeometry>
        </mxCell>
        <mxCell id="TC_qHAJ1gJQiUCRcLyHj-136" value="" style="endArrow=classic;html=1;rounded=0;strokeColor=default;align=center;verticalAlign=middle;fontFamily=Helvetica;fontSize=11;fontColor=default;labelBackgroundColor=default;edgeStyle=orthogonalEdgeStyle;curved=1;" parent="78cTH-3rYRoWqbKTk_js-3" edge="1">
          <mxGeometry relative="1" as="geometry">
            <mxPoint x="2660" y="1595" as="sourcePoint" />
            <mxPoint x="2780" y="1625" as="targetPoint" />
            <Array as="points">
              <mxPoint x="2660" y="1625" />
              <mxPoint x="2780" y="1625" />
            </Array>
          </mxGeometry>
        </mxCell>
        <mxCell id="TC_qHAJ1gJQiUCRcLyHj-137" value="&lt;font style=&quot;font-size: 14px;&quot;&gt;Alarme Alto: ZKHL&lt;/font&gt;" style="edgeLabel;resizable=0;html=1;;align=center;verticalAlign=middle;fontFamily=Helvetica;fontSize=11;fontColor=default;labelBackgroundColor=default;" parent="TC_qHAJ1gJQiUCRcLyHj-136" connectable="0" vertex="1">
          <mxGeometry relative="1" as="geometry">
            <mxPoint x="135" as="offset" />
          </mxGeometry>
        </mxCell>
        <mxCell id="TC_qHAJ1gJQiUCRcLyHj-138" value="" style="endArrow=classic;html=1;rounded=0;strokeColor=default;align=center;verticalAlign=middle;fontFamily=Helvetica;fontSize=11;fontColor=default;labelBackgroundColor=default;edgeStyle=orthogonalEdgeStyle;curved=1;" parent="78cTH-3rYRoWqbKTk_js-3" edge="1">
          <mxGeometry relative="1" as="geometry">
            <mxPoint x="2660" y="1595" as="sourcePoint" />
            <mxPoint x="2780" y="1655" as="targetPoint" />
            <Array as="points">
              <mxPoint x="2660" y="1655" />
              <mxPoint x="2780" y="1655" />
            </Array>
          </mxGeometry>
        </mxCell>
        <mxCell id="TC_qHAJ1gJQiUCRcLyHj-139" value="&lt;font style=&quot;font-size: 14px;&quot;&gt;Chave de Detecção de Alto e Baixo: ZKSHL&lt;/font&gt;" style="edgeLabel;resizable=0;html=1;;align=center;verticalAlign=middle;fontFamily=Helvetica;fontSize=11;fontColor=default;labelBackgroundColor=default;" parent="TC_qHAJ1gJQiUCRcLyHj-138" connectable="0" vertex="1">
          <mxGeometry relative="1" as="geometry">
            <mxPoint x="230" as="offset" />
          </mxGeometry>
        </mxCell>
        <mxCell id="TC_qHAJ1gJQiUCRcLyHj-140" value="" style="endArrow=classic;html=1;rounded=0;strokeColor=default;align=center;verticalAlign=middle;fontFamily=Helvetica;fontSize=11;fontColor=default;labelBackgroundColor=default;edgeStyle=orthogonalEdgeStyle;curved=1;" parent="78cTH-3rYRoWqbKTk_js-3" edge="1">
          <mxGeometry relative="1" as="geometry">
            <mxPoint x="2660" y="1595" as="sourcePoint" />
            <mxPoint x="2780" y="1675" as="targetPoint" />
            <Array as="points">
              <mxPoint x="2660" y="1675" />
              <mxPoint x="2780" y="1675" />
            </Array>
          </mxGeometry>
        </mxCell>
        <mxCell id="TC_qHAJ1gJQiUCRcLyHj-141" value="&lt;font style=&quot;font-size: 14px;&quot;&gt;Elemento Final de Controle: ZKV&lt;/font&gt;" style="edgeLabel;resizable=0;html=1;;align=center;verticalAlign=middle;fontFamily=Helvetica;fontSize=11;fontColor=default;labelBackgroundColor=default;" parent="TC_qHAJ1gJQiUCRcLyHj-140" connectable="0" vertex="1">
          <mxGeometry relative="1" as="geometry">
            <mxPoint x="210" as="offset" />
          </mxGeometry>
        </mxCell>
        <mxCell id="TC_qHAJ1gJQiUCRcLyHj-142" value="" style="endArrow=classic;html=1;rounded=0;strokeColor=default;align=center;verticalAlign=middle;fontFamily=Helvetica;fontSize=11;fontColor=default;labelBackgroundColor=default;resizable=0;edgeStyle=orthogonalEdgeStyle;curved=1;entryX=0;entryY=0.5;entryDx=0;entryDy=0;" parent="78cTH-3rYRoWqbKTk_js-3" target="TC_qHAJ1gJQiUCRcLyHj-144" edge="1">
          <mxGeometry relative="1" as="geometry">
            <mxPoint x="2990" y="1675" as="sourcePoint" />
            <mxPoint x="3140" y="1675" as="targetPoint" />
          </mxGeometry>
        </mxCell>
        <mxCell id="TC_qHAJ1gJQiUCRcLyHj-143" value="&lt;font style=&quot;font-size: 14px;&quot;&gt;Corresponde a&lt;/font&gt;" style="edgeLabel;resizable=0;html=1;;align=center;verticalAlign=middle;fontFamily=Helvetica;fontSize=11;fontColor=default;labelBackgroundColor=default;fillColor=none;gradientColor=none;" parent="TC_qHAJ1gJQiUCRcLyHj-142" connectable="0" vertex="1">
          <mxGeometry relative="1" as="geometry" />
        </mxCell>
        <mxCell id="TC_qHAJ1gJQiUCRcLyHj-144" value="&lt;span style=&quot;font-size: 14px; text-align: left; text-wrap: nowrap; background-color: rgb(255, 255, 255);&quot;&gt;Driver, Atuador,&lt;/span&gt;&lt;br style=&quot;font-size: 14px; text-align: left; text-wrap: nowrap; background-color: rgb(255, 255, 255);&quot;&gt;&lt;span style=&quot;font-size: 14px; text-align: left; text-wrap: nowrap; background-color: rgb(255, 255, 255);&quot;&gt;Elemento Final&lt;/span&gt;&lt;div&gt;&lt;span style=&quot;font-size: 14px; text-align: left; text-wrap: nowrap; background-color: rgb(255, 255, 255);&quot;&gt;&amp;nbsp;não Classificado&lt;/span&gt;&lt;/div&gt;" style="whiteSpace=wrap;html=1;rounded=1;" parent="78cTH-3rYRoWqbKTk_js-3" vertex="1">
          <mxGeometry x="3140" y="1645" width="120" height="60" as="geometry" />
        </mxCell>
        <mxCell id="TC_qHAJ1gJQiUCRcLyHj-242" value="&lt;br&gt;Detecção de produtos/recipientes numa dada posição ou de passagem de uma peça/produto em uma dada posição ao longo do seu deslocamento&lt;div&gt;&lt;br/&gt;&lt;/div&gt;" style="rounded=1;whiteSpace=wrap;html=1;" parent="78cTH-3rYRoWqbKTk_js-3" vertex="1">
          <mxGeometry x="2650" y="2205" width="270" height="60" as="geometry" />
        </mxCell>
        <mxCell id="TC_qHAJ1gJQiUCRcLyHj-247" value="&lt;font style=&quot;font-size: 14px;&quot;&gt;usado para&lt;/font&gt;" style="edgeStyle=orthogonalEdgeStyle;curved=1;rounded=0;orthogonalLoop=1;jettySize=auto;html=1;strokeColor=default;align=center;verticalAlign=middle;fontFamily=Helvetica;fontSize=11;fontColor=default;labelBackgroundColor=default;resizable=0;endArrow=classic;entryX=0;entryY=0.5;entryDx=0;entryDy=0;exitX=1;exitY=0.5;exitDx=0;exitDy=0;" parent="78cTH-3rYRoWqbKTk_js-3" source="TC_qHAJ1gJQiUCRcLyHj-124" target="TC_qHAJ1gJQiUCRcLyHj-248" edge="1">
          <mxGeometry x="-0.062" y="10" relative="1" as="geometry">
            <mxPoint x="2480" y="1685" as="sourcePoint" />
            <Array as="points">
              <mxPoint x="2520" y="1665" />
              <mxPoint x="2520" y="1835" />
            </Array>
            <mxPoint as="offset" />
          </mxGeometry>
        </mxCell>
        <mxCell id="TC_qHAJ1gJQiUCRcLyHj-248" value="&lt;div&gt;Movimentos em máquinas e&lt;br&gt;ferramentas, indicação contínua de posição de&lt;br&gt;mecanismo de atuação.&lt;br&gt;&lt;/div&gt;" style="rounded=1;whiteSpace=wrap;html=1;" parent="78cTH-3rYRoWqbKTk_js-3" vertex="1">
          <mxGeometry x="2650" y="1805" width="270" height="60" as="geometry" />
        </mxCell>
        <mxCell id="TC_qHAJ1gJQiUCRcLyHj-249" value="&lt;font style=&quot;font-size: 14px;&quot;&gt;significa&lt;/font&gt;" style="edgeStyle=orthogonalEdgeStyle;curved=1;rounded=0;orthogonalLoop=1;jettySize=auto;html=1;strokeColor=default;align=center;verticalAlign=middle;fontFamily=Helvetica;fontSize=11;fontColor=default;labelBackgroundColor=default;endArrow=classic;entryX=0;entryY=0.5;entryDx=0;entryDy=0;" parent="78cTH-3rYRoWqbKTk_js-3" source="TC_qHAJ1gJQiUCRcLyHj-253" target="TC_qHAJ1gJQiUCRcLyHj-254" edge="1">
          <mxGeometry x="0.4615" y="10" relative="1" as="geometry">
            <mxPoint x="1" as="offset" />
          </mxGeometry>
        </mxCell>
        <mxCell id="TC_qHAJ1gJQiUCRcLyHj-250" value="&lt;font style=&quot;font-size: 14px;&quot;&gt;medida em: m&lt;/font&gt;" style="edgeStyle=orthogonalEdgeStyle;curved=1;rounded=0;orthogonalLoop=1;jettySize=auto;html=1;exitX=1;exitY=0.5;exitDx=0;exitDy=0;strokeColor=default;align=center;verticalAlign=middle;fontFamily=Helvetica;fontSize=11;fontColor=default;labelBackgroundColor=default;endArrow=classic;" parent="78cTH-3rYRoWqbKTk_js-3" source="TC_qHAJ1gJQiUCRcLyHj-253" edge="1">
          <mxGeometry x="1" y="50" relative="1" as="geometry">
            <mxPoint x="2650" y="1385" as="targetPoint" />
            <Array as="points">
              <mxPoint x="2540" y="1295" />
              <mxPoint x="2540" y="1385" />
            </Array>
            <mxPoint x="50" y="50" as="offset" />
          </mxGeometry>
        </mxCell>
        <mxCell id="TC_qHAJ1gJQiUCRcLyHj-251" value="&lt;font style=&quot;font-size: 14px;&quot;&gt;tem mnemônico de&lt;/font&gt;" style="edgeStyle=orthogonalEdgeStyle;curved=1;rounded=0;orthogonalLoop=1;jettySize=auto;html=1;exitX=1;exitY=0.5;exitDx=0;exitDy=0;strokeColor=default;align=center;verticalAlign=middle;fontFamily=Helvetica;fontSize=11;fontColor=default;labelBackgroundColor=default;endArrow=none;endFill=0;" parent="78cTH-3rYRoWqbKTk_js-3" source="TC_qHAJ1gJQiUCRcLyHj-253" edge="1">
          <mxGeometry x="0.3332" relative="1" as="geometry">
            <mxPoint x="2660" y="1225" as="targetPoint" />
            <Array as="points">
              <mxPoint x="2480" y="1225" />
            </Array>
            <mxPoint as="offset" />
          </mxGeometry>
        </mxCell>
        <mxCell id="TC_qHAJ1gJQiUCRcLyHj-252" value="&lt;font style=&quot;font-size: 14px;&quot;&gt;usado para&lt;/font&gt;" style="edgeStyle=orthogonalEdgeStyle;curved=1;rounded=0;orthogonalLoop=1;jettySize=auto;html=1;strokeColor=default;align=center;verticalAlign=middle;fontFamily=Helvetica;fontSize=11;fontColor=default;labelBackgroundColor=default;resizable=0;endArrow=classic;entryX=0;entryY=0.5;entryDx=0;entryDy=0;" parent="78cTH-3rYRoWqbKTk_js-3" source="TC_qHAJ1gJQiUCRcLyHj-253" target="TC_qHAJ1gJQiUCRcLyHj-274" edge="1">
          <mxGeometry x="-0.062" y="10" relative="1" as="geometry">
            <Array as="points">
              <mxPoint x="2520" y="1295" />
              <mxPoint x="2520" y="1445" />
            </Array>
            <mxPoint as="offset" />
          </mxGeometry>
        </mxCell>
        <mxCell id="TC_qHAJ1gJQiUCRcLyHj-253" value="&lt;span style=&quot;font-size: 16px;&quot;&gt;&lt;b&gt;Vibração/&lt;/b&gt;&lt;/span&gt;&lt;div&gt;&lt;span style=&quot;font-size: 16px;&quot;&gt;&lt;b&gt;Aceleração&lt;/b&gt;&lt;/span&gt;&lt;/div&gt;" style="rounded=1;whiteSpace=wrap;html=1;" parent="78cTH-3rYRoWqbKTk_js-3" vertex="1">
          <mxGeometry x="2360" y="1265" width="120" height="60" as="geometry" />
        </mxCell>
        <mxCell id="TC_qHAJ1gJQiUCRcLyHj-254" value="&lt;font style=&quot;font-size: 14px;&quot;&gt;Mudança na velocidade do objeto.&lt;/font&gt;" style="whiteSpace=wrap;html=1;rounded=1;" parent="78cTH-3rYRoWqbKTk_js-3" vertex="1">
          <mxGeometry x="2660" y="1315" width="120" height="60" as="geometry" />
        </mxCell>
        <mxCell id="TC_qHAJ1gJQiUCRcLyHj-255" value="" style="endArrow=classic;html=1;rounded=0;strokeColor=default;align=center;verticalAlign=middle;fontFamily=Helvetica;fontSize=11;fontColor=default;labelBackgroundColor=default;edgeStyle=orthogonalEdgeStyle;curved=1;" parent="78cTH-3rYRoWqbKTk_js-3" edge="1">
          <mxGeometry relative="1" as="geometry">
            <mxPoint x="2660" y="1223.8199999999997" as="sourcePoint" />
            <mxPoint x="2780" y="1125" as="targetPoint" />
            <Array as="points">
              <mxPoint x="2660" y="1125" />
            </Array>
          </mxGeometry>
        </mxCell>
        <mxCell id="TC_qHAJ1gJQiUCRcLyHj-256" value="&lt;font style=&quot;font-size: 14px;&quot;&gt;Elemento Primário: VE&lt;/font&gt;" style="edgeLabel;resizable=0;html=1;;align=center;verticalAlign=middle;fontFamily=Helvetica;fontSize=11;fontColor=default;labelBackgroundColor=default;" parent="TC_qHAJ1gJQiUCRcLyHj-255" connectable="0" vertex="1">
          <mxGeometry relative="1" as="geometry">
            <mxPoint x="189" as="offset" />
          </mxGeometry>
        </mxCell>
        <mxCell id="TC_qHAJ1gJQiUCRcLyHj-257" value="" style="endArrow=classic;html=1;rounded=0;strokeColor=default;align=center;verticalAlign=middle;fontFamily=Helvetica;fontSize=11;fontColor=default;labelBackgroundColor=default;edgeStyle=orthogonalEdgeStyle;curved=1;" parent="78cTH-3rYRoWqbKTk_js-3" edge="1">
          <mxGeometry relative="1" as="geometry">
            <mxPoint x="2660" y="1225" as="sourcePoint" />
            <mxPoint x="2780" y="1155" as="targetPoint" />
            <Array as="points">
              <mxPoint x="2660" y="1155" />
              <mxPoint x="2780" y="1155" />
            </Array>
          </mxGeometry>
        </mxCell>
        <mxCell id="TC_qHAJ1gJQiUCRcLyHj-258" value="&lt;font style=&quot;font-size: 14px;&quot;&gt;Transmissor com Indicação: VIT&lt;/font&gt;" style="edgeLabel;resizable=0;html=1;;align=center;verticalAlign=middle;fontFamily=Helvetica;fontSize=11;fontColor=default;labelBackgroundColor=default;" parent="TC_qHAJ1gJQiUCRcLyHj-257" connectable="0" vertex="1">
          <mxGeometry relative="1" as="geometry">
            <mxPoint x="195" as="offset" />
          </mxGeometry>
        </mxCell>
        <mxCell id="TC_qHAJ1gJQiUCRcLyHj-259" value="" style="endArrow=classic;html=1;rounded=0;strokeColor=default;align=center;verticalAlign=middle;fontFamily=Helvetica;fontSize=11;fontColor=default;labelBackgroundColor=default;edgeStyle=orthogonalEdgeStyle;curved=1;" parent="78cTH-3rYRoWqbKTk_js-3" edge="1">
          <mxGeometry relative="1" as="geometry">
            <mxPoint x="2660" y="1225" as="sourcePoint" />
            <mxPoint x="2780" y="1185" as="targetPoint" />
            <Array as="points">
              <mxPoint x="2660" y="1185" />
              <mxPoint x="2780" y="1185" />
            </Array>
          </mxGeometry>
        </mxCell>
        <mxCell id="TC_qHAJ1gJQiUCRcLyHj-260" value="&lt;font style=&quot;font-size: 14px;&quot;&gt;Transmissor com Registro: VRT&lt;/font&gt;" style="edgeLabel;resizable=0;html=1;;align=center;verticalAlign=middle;fontFamily=Helvetica;fontSize=11;fontColor=default;labelBackgroundColor=default;" parent="TC_qHAJ1gJQiUCRcLyHj-259" connectable="0" vertex="1">
          <mxGeometry relative="1" as="geometry">
            <mxPoint x="180" as="offset" />
          </mxGeometry>
        </mxCell>
        <mxCell id="TC_qHAJ1gJQiUCRcLyHj-261" value="" style="endArrow=classic;html=1;rounded=0;strokeColor=default;align=center;verticalAlign=middle;fontFamily=Helvetica;fontSize=11;fontColor=default;labelBackgroundColor=default;edgeStyle=orthogonalEdgeStyle;curved=1;" parent="78cTH-3rYRoWqbKTk_js-3" edge="1">
          <mxGeometry relative="1" as="geometry">
            <mxPoint x="2660" y="1225" as="sourcePoint" />
            <mxPoint x="2780" y="1205" as="targetPoint" />
            <Array as="points">
              <mxPoint x="2660" y="1205" />
              <mxPoint x="2780" y="1205" />
            </Array>
          </mxGeometry>
        </mxCell>
        <mxCell id="TC_qHAJ1gJQiUCRcLyHj-262" value="&lt;font style=&quot;font-size: 14px;&quot;&gt;Controlador com Indicação: VIC&lt;/font&gt;" style="edgeLabel;resizable=0;html=1;;align=center;verticalAlign=middle;fontFamily=Helvetica;fontSize=11;fontColor=default;labelBackgroundColor=default;" parent="TC_qHAJ1gJQiUCRcLyHj-261" connectable="0" vertex="1">
          <mxGeometry relative="1" as="geometry">
            <mxPoint x="169" as="offset" />
          </mxGeometry>
        </mxCell>
        <mxCell id="TC_qHAJ1gJQiUCRcLyHj-263" value="" style="endArrow=classic;html=1;rounded=0;strokeColor=default;align=center;verticalAlign=middle;fontFamily=Helvetica;fontSize=11;fontColor=default;labelBackgroundColor=default;edgeStyle=orthogonalEdgeStyle;curved=1;" parent="78cTH-3rYRoWqbKTk_js-3" edge="1">
          <mxGeometry relative="1" as="geometry">
            <mxPoint x="2660" y="1225" as="sourcePoint" />
            <mxPoint x="2780" y="1225" as="targetPoint" />
            <Array as="points">
              <mxPoint x="2660" y="1225" />
            </Array>
          </mxGeometry>
        </mxCell>
        <mxCell id="TC_qHAJ1gJQiUCRcLyHj-264" value="&lt;font style=&quot;font-size: 14px;&quot;&gt;Alarme Baixo: VSL&lt;/font&gt;" style="edgeLabel;resizable=0;html=1;;align=center;verticalAlign=middle;fontFamily=Helvetica;fontSize=11;fontColor=default;labelBackgroundColor=default;" parent="TC_qHAJ1gJQiUCRcLyHj-263" connectable="0" vertex="1">
          <mxGeometry relative="1" as="geometry">
            <mxPoint x="120" as="offset" />
          </mxGeometry>
        </mxCell>
        <mxCell id="TC_qHAJ1gJQiUCRcLyHj-265" value="" style="endArrow=classic;html=1;rounded=0;strokeColor=default;align=center;verticalAlign=middle;fontFamily=Helvetica;fontSize=11;fontColor=default;labelBackgroundColor=default;edgeStyle=orthogonalEdgeStyle;curved=1;" parent="78cTH-3rYRoWqbKTk_js-3" edge="1">
          <mxGeometry relative="1" as="geometry">
            <mxPoint x="2660" y="1225" as="sourcePoint" />
            <mxPoint x="2780" y="1255" as="targetPoint" />
            <Array as="points">
              <mxPoint x="2660" y="1255" />
              <mxPoint x="2780" y="1255" />
            </Array>
          </mxGeometry>
        </mxCell>
        <mxCell id="TC_qHAJ1gJQiUCRcLyHj-266" value="&lt;font style=&quot;font-size: 14px;&quot;&gt;Alarme Alto: VHL&lt;/font&gt;" style="edgeLabel;resizable=0;html=1;;align=center;verticalAlign=middle;fontFamily=Helvetica;fontSize=11;fontColor=default;labelBackgroundColor=default;" parent="TC_qHAJ1gJQiUCRcLyHj-265" connectable="0" vertex="1">
          <mxGeometry relative="1" as="geometry">
            <mxPoint x="125" as="offset" />
          </mxGeometry>
        </mxCell>
        <mxCell id="TC_qHAJ1gJQiUCRcLyHj-267" value="" style="endArrow=classic;html=1;rounded=0;strokeColor=default;align=center;verticalAlign=middle;fontFamily=Helvetica;fontSize=11;fontColor=default;labelBackgroundColor=default;edgeStyle=orthogonalEdgeStyle;curved=1;" parent="78cTH-3rYRoWqbKTk_js-3" edge="1">
          <mxGeometry relative="1" as="geometry">
            <mxPoint x="2660" y="1225" as="sourcePoint" />
            <mxPoint x="2780" y="1285" as="targetPoint" />
            <Array as="points">
              <mxPoint x="2660" y="1285" />
              <mxPoint x="2780" y="1285" />
            </Array>
          </mxGeometry>
        </mxCell>
        <mxCell id="TC_qHAJ1gJQiUCRcLyHj-268" value="&lt;font style=&quot;font-size: 14px;&quot;&gt;Chave de Detecção de Alto e Baixo: VSHL&lt;/font&gt;" style="edgeLabel;resizable=0;html=1;;align=center;verticalAlign=middle;fontFamily=Helvetica;fontSize=11;fontColor=default;labelBackgroundColor=default;" parent="TC_qHAJ1gJQiUCRcLyHj-267" connectable="0" vertex="1">
          <mxGeometry relative="1" as="geometry">
            <mxPoint x="219" as="offset" />
          </mxGeometry>
        </mxCell>
        <mxCell id="TC_qHAJ1gJQiUCRcLyHj-269" value="" style="endArrow=classic;html=1;rounded=0;strokeColor=default;align=center;verticalAlign=middle;fontFamily=Helvetica;fontSize=11;fontColor=default;labelBackgroundColor=default;edgeStyle=orthogonalEdgeStyle;curved=1;" parent="78cTH-3rYRoWqbKTk_js-3" edge="1">
          <mxGeometry relative="1" as="geometry">
            <mxPoint x="2660" y="1225" as="sourcePoint" />
            <mxPoint x="2780" y="1305" as="targetPoint" />
            <Array as="points">
              <mxPoint x="2660" y="1305" />
              <mxPoint x="2780" y="1305" />
            </Array>
          </mxGeometry>
        </mxCell>
        <mxCell id="TC_qHAJ1gJQiUCRcLyHj-270" value="&lt;font style=&quot;font-size: 14px;&quot;&gt;Elemento Final de Controle: VZ&lt;/font&gt;" style="edgeLabel;resizable=0;html=1;;align=center;verticalAlign=middle;fontFamily=Helvetica;fontSize=11;fontColor=default;labelBackgroundColor=default;" parent="TC_qHAJ1gJQiUCRcLyHj-269" connectable="0" vertex="1">
          <mxGeometry relative="1" as="geometry">
            <mxPoint x="200" as="offset" />
          </mxGeometry>
        </mxCell>
        <mxCell id="TC_qHAJ1gJQiUCRcLyHj-271" value="" style="endArrow=classic;html=1;rounded=0;strokeColor=default;align=center;verticalAlign=middle;fontFamily=Helvetica;fontSize=11;fontColor=default;labelBackgroundColor=default;resizable=0;edgeStyle=orthogonalEdgeStyle;curved=1;entryX=0;entryY=0.5;entryDx=0;entryDy=0;" parent="78cTH-3rYRoWqbKTk_js-3" target="TC_qHAJ1gJQiUCRcLyHj-273" edge="1">
          <mxGeometry relative="1" as="geometry">
            <mxPoint x="2980" y="1305" as="sourcePoint" />
            <mxPoint x="3140" y="1305" as="targetPoint" />
          </mxGeometry>
        </mxCell>
        <mxCell id="TC_qHAJ1gJQiUCRcLyHj-272" value="&lt;font style=&quot;font-size: 14px;&quot;&gt;Corresponde a&lt;/font&gt;" style="edgeLabel;resizable=0;html=1;;align=center;verticalAlign=middle;fontFamily=Helvetica;fontSize=11;fontColor=default;labelBackgroundColor=default;fillColor=none;gradientColor=none;" parent="TC_qHAJ1gJQiUCRcLyHj-271" connectable="0" vertex="1">
          <mxGeometry relative="1" as="geometry" />
        </mxCell>
        <mxCell id="TC_qHAJ1gJQiUCRcLyHj-273" value="&lt;div style=&quot;text-align: left;&quot;&gt;&lt;span style=&quot;font-size: 14px; text-wrap: nowrap; background-color: rgb(255, 255, 255);&quot;&gt;Válvula,&lt;/span&gt;&lt;/div&gt;&lt;div style=&quot;text-align: left;&quot;&gt;&lt;span style=&quot;font-size: 14px; text-wrap: nowrap; background-color: rgb(255, 255, 255);&quot;&gt;Claraboia,&lt;/span&gt;&lt;/div&gt;&lt;div style=&quot;text-align: left;&quot;&gt;&lt;span style=&quot;font-size: 14px; text-wrap: nowrap; background-color: rgb(255, 255, 255);&quot;&gt;Amortecedor.&lt;/span&gt;&lt;/div&gt;" style="whiteSpace=wrap;html=1;rounded=1;" parent="78cTH-3rYRoWqbKTk_js-3" vertex="1">
          <mxGeometry x="3140" y="1275" width="120" height="60" as="geometry" />
        </mxCell>
        <mxCell id="TC_qHAJ1gJQiUCRcLyHj-274" value="&lt;div&gt;Medição de vibrações em máquinas e mancais para detectar níveis de vibração não adequados e evitar desgastes, desalinhamentos, folgas e desconforto.&lt;br&gt;&lt;/div&gt;" style="rounded=1;whiteSpace=wrap;html=1;" parent="78cTH-3rYRoWqbKTk_js-3" vertex="1">
          <mxGeometry x="2650" y="1415" width="270" height="60" as="geometry" />
        </mxCell>
        <mxCell id="TC_qHAJ1gJQiUCRcLyHj-275" value="&lt;font style=&quot;font-size: 14px;&quot;&gt;significa&lt;/font&gt;" style="edgeStyle=orthogonalEdgeStyle;curved=1;rounded=0;orthogonalLoop=1;jettySize=auto;html=1;strokeColor=default;align=center;verticalAlign=middle;fontFamily=Helvetica;fontSize=11;fontColor=default;labelBackgroundColor=default;endArrow=classic;entryX=0;entryY=0.5;entryDx=0;entryDy=0;" parent="78cTH-3rYRoWqbKTk_js-3" source="TC_qHAJ1gJQiUCRcLyHj-279" target="TC_qHAJ1gJQiUCRcLyHj-280" edge="1">
          <mxGeometry x="0.4615" y="10" relative="1" as="geometry">
            <mxPoint x="1" as="offset" />
          </mxGeometry>
        </mxCell>
        <mxCell id="TC_qHAJ1gJQiUCRcLyHj-276" value="&lt;font style=&quot;font-size: 14px;&quot;&gt;medida em: m&lt;/font&gt;" style="edgeStyle=orthogonalEdgeStyle;curved=1;rounded=0;orthogonalLoop=1;jettySize=auto;html=1;exitX=1;exitY=0.5;exitDx=0;exitDy=0;strokeColor=default;align=center;verticalAlign=middle;fontFamily=Helvetica;fontSize=11;fontColor=default;labelBackgroundColor=default;endArrow=classic;" parent="78cTH-3rYRoWqbKTk_js-3" source="TC_qHAJ1gJQiUCRcLyHj-279" edge="1">
          <mxGeometry x="1" y="50" relative="1" as="geometry">
            <mxPoint x="2650" y="1005" as="targetPoint" />
            <Array as="points">
              <mxPoint x="2540" y="915" />
              <mxPoint x="2540" y="1005" />
            </Array>
            <mxPoint x="50" y="50" as="offset" />
          </mxGeometry>
        </mxCell>
        <mxCell id="TC_qHAJ1gJQiUCRcLyHj-277" value="&lt;font style=&quot;font-size: 14px;&quot;&gt;tem mnemônico de&lt;/font&gt;" style="edgeStyle=orthogonalEdgeStyle;curved=1;rounded=0;orthogonalLoop=1;jettySize=auto;html=1;exitX=1;exitY=0.5;exitDx=0;exitDy=0;strokeColor=default;align=center;verticalAlign=middle;fontFamily=Helvetica;fontSize=11;fontColor=default;labelBackgroundColor=default;endArrow=none;endFill=0;" parent="78cTH-3rYRoWqbKTk_js-3" source="TC_qHAJ1gJQiUCRcLyHj-279" edge="1">
          <mxGeometry x="0.3332" relative="1" as="geometry">
            <mxPoint x="2660" y="845" as="targetPoint" />
            <Array as="points">
              <mxPoint x="2480" y="845" />
            </Array>
            <mxPoint as="offset" />
          </mxGeometry>
        </mxCell>
        <mxCell id="TC_qHAJ1gJQiUCRcLyHj-278" value="&lt;font style=&quot;font-size: 14px;&quot;&gt;usado para&lt;/font&gt;" style="edgeStyle=orthogonalEdgeStyle;curved=1;rounded=0;orthogonalLoop=1;jettySize=auto;html=1;strokeColor=default;align=center;verticalAlign=middle;fontFamily=Helvetica;fontSize=11;fontColor=default;labelBackgroundColor=default;resizable=0;endArrow=classic;entryX=0;entryY=0.5;entryDx=0;entryDy=0;" parent="78cTH-3rYRoWqbKTk_js-3" source="TC_qHAJ1gJQiUCRcLyHj-279" target="TC_qHAJ1gJQiUCRcLyHj-300" edge="1">
          <mxGeometry x="-0.062" y="10" relative="1" as="geometry">
            <Array as="points">
              <mxPoint x="2520" y="915" />
              <mxPoint x="2520" y="1065" />
            </Array>
            <mxPoint as="offset" />
          </mxGeometry>
        </mxCell>
        <mxCell id="TC_qHAJ1gJQiUCRcLyHj-279" value="&lt;font style=&quot;font-size: 16px;&quot;&gt;&lt;b&gt;Velocidade&lt;/b&gt;&lt;/font&gt;" style="rounded=1;whiteSpace=wrap;html=1;" parent="78cTH-3rYRoWqbKTk_js-3" vertex="1">
          <mxGeometry x="2360" y="885" width="120" height="60" as="geometry" />
        </mxCell>
        <mxCell id="TC_qHAJ1gJQiUCRcLyHj-280" value="&lt;font style=&quot;font-size: 14px;&quot;&gt;Variação da posição de um objeto pelo tempo.&lt;/font&gt;" style="whiteSpace=wrap;html=1;rounded=1;" parent="78cTH-3rYRoWqbKTk_js-3" vertex="1">
          <mxGeometry x="2660" y="935" width="120" height="60" as="geometry" />
        </mxCell>
        <mxCell id="TC_qHAJ1gJQiUCRcLyHj-281" value="" style="endArrow=classic;html=1;rounded=0;strokeColor=default;align=center;verticalAlign=middle;fontFamily=Helvetica;fontSize=11;fontColor=default;labelBackgroundColor=default;edgeStyle=orthogonalEdgeStyle;curved=1;" parent="78cTH-3rYRoWqbKTk_js-3" edge="1">
          <mxGeometry relative="1" as="geometry">
            <mxPoint x="2660" y="843.8199999999997" as="sourcePoint" />
            <mxPoint x="2780" y="745" as="targetPoint" />
            <Array as="points">
              <mxPoint x="2660" y="745" />
            </Array>
          </mxGeometry>
        </mxCell>
        <mxCell id="TC_qHAJ1gJQiUCRcLyHj-282" value="&lt;font style=&quot;font-size: 14px;&quot;&gt;Elemento Primário: SE&lt;/font&gt;" style="edgeLabel;resizable=0;html=1;;align=center;verticalAlign=middle;fontFamily=Helvetica;fontSize=11;fontColor=default;labelBackgroundColor=default;" parent="TC_qHAJ1gJQiUCRcLyHj-281" connectable="0" vertex="1">
          <mxGeometry relative="1" as="geometry">
            <mxPoint x="189" as="offset" />
          </mxGeometry>
        </mxCell>
        <mxCell id="TC_qHAJ1gJQiUCRcLyHj-283" value="" style="endArrow=classic;html=1;rounded=0;strokeColor=default;align=center;verticalAlign=middle;fontFamily=Helvetica;fontSize=11;fontColor=default;labelBackgroundColor=default;edgeStyle=orthogonalEdgeStyle;curved=1;" parent="78cTH-3rYRoWqbKTk_js-3" edge="1">
          <mxGeometry relative="1" as="geometry">
            <mxPoint x="2660" y="845" as="sourcePoint" />
            <mxPoint x="2780" y="775" as="targetPoint" />
            <Array as="points">
              <mxPoint x="2660" y="775" />
              <mxPoint x="2780" y="775" />
            </Array>
          </mxGeometry>
        </mxCell>
        <mxCell id="TC_qHAJ1gJQiUCRcLyHj-284" value="&lt;font style=&quot;font-size: 14px;&quot;&gt;Transmissor com Indicação: SIT&lt;/font&gt;" style="edgeLabel;resizable=0;html=1;;align=center;verticalAlign=middle;fontFamily=Helvetica;fontSize=11;fontColor=default;labelBackgroundColor=default;" parent="TC_qHAJ1gJQiUCRcLyHj-283" connectable="0" vertex="1">
          <mxGeometry relative="1" as="geometry">
            <mxPoint x="195" as="offset" />
          </mxGeometry>
        </mxCell>
        <mxCell id="TC_qHAJ1gJQiUCRcLyHj-285" value="" style="endArrow=classic;html=1;rounded=0;strokeColor=default;align=center;verticalAlign=middle;fontFamily=Helvetica;fontSize=11;fontColor=default;labelBackgroundColor=default;edgeStyle=orthogonalEdgeStyle;curved=1;" parent="78cTH-3rYRoWqbKTk_js-3" edge="1">
          <mxGeometry relative="1" as="geometry">
            <mxPoint x="2660" y="845" as="sourcePoint" />
            <mxPoint x="2780" y="805" as="targetPoint" />
            <Array as="points">
              <mxPoint x="2660" y="805" />
              <mxPoint x="2780" y="805" />
            </Array>
          </mxGeometry>
        </mxCell>
        <mxCell id="TC_qHAJ1gJQiUCRcLyHj-286" value="&lt;font style=&quot;font-size: 14px;&quot;&gt;Transmissor com Registro: SRT&lt;/font&gt;" style="edgeLabel;resizable=0;html=1;;align=center;verticalAlign=middle;fontFamily=Helvetica;fontSize=11;fontColor=default;labelBackgroundColor=default;" parent="TC_qHAJ1gJQiUCRcLyHj-285" connectable="0" vertex="1">
          <mxGeometry relative="1" as="geometry">
            <mxPoint x="180" as="offset" />
          </mxGeometry>
        </mxCell>
        <mxCell id="TC_qHAJ1gJQiUCRcLyHj-287" value="" style="endArrow=classic;html=1;rounded=0;strokeColor=default;align=center;verticalAlign=middle;fontFamily=Helvetica;fontSize=11;fontColor=default;labelBackgroundColor=default;edgeStyle=orthogonalEdgeStyle;curved=1;" parent="78cTH-3rYRoWqbKTk_js-3" edge="1">
          <mxGeometry relative="1" as="geometry">
            <mxPoint x="2660" y="845" as="sourcePoint" />
            <mxPoint x="2780" y="825" as="targetPoint" />
            <Array as="points">
              <mxPoint x="2660" y="825" />
              <mxPoint x="2780" y="825" />
            </Array>
          </mxGeometry>
        </mxCell>
        <mxCell id="TC_qHAJ1gJQiUCRcLyHj-288" value="&lt;font style=&quot;font-size: 14px;&quot;&gt;Controlador com Indicação: SIC&lt;/font&gt;" style="edgeLabel;resizable=0;html=1;;align=center;verticalAlign=middle;fontFamily=Helvetica;fontSize=11;fontColor=default;labelBackgroundColor=default;" parent="TC_qHAJ1gJQiUCRcLyHj-287" connectable="0" vertex="1">
          <mxGeometry relative="1" as="geometry">
            <mxPoint x="169" as="offset" />
          </mxGeometry>
        </mxCell>
        <mxCell id="TC_qHAJ1gJQiUCRcLyHj-289" value="" style="endArrow=classic;html=1;rounded=0;strokeColor=default;align=center;verticalAlign=middle;fontFamily=Helvetica;fontSize=11;fontColor=default;labelBackgroundColor=default;edgeStyle=orthogonalEdgeStyle;curved=1;" parent="78cTH-3rYRoWqbKTk_js-3" edge="1">
          <mxGeometry relative="1" as="geometry">
            <mxPoint x="2660" y="845" as="sourcePoint" />
            <mxPoint x="2780" y="845" as="targetPoint" />
            <Array as="points">
              <mxPoint x="2660" y="845" />
            </Array>
          </mxGeometry>
        </mxCell>
        <mxCell id="TC_qHAJ1gJQiUCRcLyHj-290" value="&lt;font style=&quot;font-size: 14px;&quot;&gt;Alarme Baixo: SSL&lt;/font&gt;" style="edgeLabel;resizable=0;html=1;;align=center;verticalAlign=middle;fontFamily=Helvetica;fontSize=11;fontColor=default;labelBackgroundColor=default;" parent="TC_qHAJ1gJQiUCRcLyHj-289" connectable="0" vertex="1">
          <mxGeometry relative="1" as="geometry">
            <mxPoint x="120" as="offset" />
          </mxGeometry>
        </mxCell>
        <mxCell id="TC_qHAJ1gJQiUCRcLyHj-291" value="" style="endArrow=classic;html=1;rounded=0;strokeColor=default;align=center;verticalAlign=middle;fontFamily=Helvetica;fontSize=11;fontColor=default;labelBackgroundColor=default;edgeStyle=orthogonalEdgeStyle;curved=1;" parent="78cTH-3rYRoWqbKTk_js-3" edge="1">
          <mxGeometry relative="1" as="geometry">
            <mxPoint x="2660" y="845" as="sourcePoint" />
            <mxPoint x="2780" y="875" as="targetPoint" />
            <Array as="points">
              <mxPoint x="2660" y="875" />
              <mxPoint x="2780" y="875" />
            </Array>
          </mxGeometry>
        </mxCell>
        <mxCell id="TC_qHAJ1gJQiUCRcLyHj-292" value="&lt;font style=&quot;font-size: 14px;&quot;&gt;Alarme Alto: SHL&lt;/font&gt;" style="edgeLabel;resizable=0;html=1;;align=center;verticalAlign=middle;fontFamily=Helvetica;fontSize=11;fontColor=default;labelBackgroundColor=default;" parent="TC_qHAJ1gJQiUCRcLyHj-291" connectable="0" vertex="1">
          <mxGeometry relative="1" as="geometry">
            <mxPoint x="125" as="offset" />
          </mxGeometry>
        </mxCell>
        <mxCell id="TC_qHAJ1gJQiUCRcLyHj-293" value="" style="endArrow=classic;html=1;rounded=0;strokeColor=default;align=center;verticalAlign=middle;fontFamily=Helvetica;fontSize=11;fontColor=default;labelBackgroundColor=default;edgeStyle=orthogonalEdgeStyle;curved=1;" parent="78cTH-3rYRoWqbKTk_js-3" edge="1">
          <mxGeometry relative="1" as="geometry">
            <mxPoint x="2660" y="845" as="sourcePoint" />
            <mxPoint x="2780" y="905" as="targetPoint" />
            <Array as="points">
              <mxPoint x="2660" y="905" />
              <mxPoint x="2780" y="905" />
            </Array>
          </mxGeometry>
        </mxCell>
        <mxCell id="TC_qHAJ1gJQiUCRcLyHj-294" value="&lt;font style=&quot;font-size: 14px;&quot;&gt;Chave de Detecção de Alto e Baixo: SSHL&lt;/font&gt;" style="edgeLabel;resizable=0;html=1;;align=center;verticalAlign=middle;fontFamily=Helvetica;fontSize=11;fontColor=default;labelBackgroundColor=default;" parent="TC_qHAJ1gJQiUCRcLyHj-293" connectable="0" vertex="1">
          <mxGeometry relative="1" as="geometry">
            <mxPoint x="219" as="offset" />
          </mxGeometry>
        </mxCell>
        <mxCell id="TC_qHAJ1gJQiUCRcLyHj-295" value="" style="endArrow=classic;html=1;rounded=0;strokeColor=default;align=center;verticalAlign=middle;fontFamily=Helvetica;fontSize=11;fontColor=default;labelBackgroundColor=default;edgeStyle=orthogonalEdgeStyle;curved=1;" parent="78cTH-3rYRoWqbKTk_js-3" edge="1">
          <mxGeometry relative="1" as="geometry">
            <mxPoint x="2660" y="845" as="sourcePoint" />
            <mxPoint x="2780" y="925" as="targetPoint" />
            <Array as="points">
              <mxPoint x="2660" y="925" />
              <mxPoint x="2780" y="925" />
            </Array>
          </mxGeometry>
        </mxCell>
        <mxCell id="TC_qHAJ1gJQiUCRcLyHj-296" value="&lt;font style=&quot;font-size: 14px;&quot;&gt;Elemento Final de Controle: SZ&lt;/font&gt;" style="edgeLabel;resizable=0;html=1;;align=center;verticalAlign=middle;fontFamily=Helvetica;fontSize=11;fontColor=default;labelBackgroundColor=default;" parent="TC_qHAJ1gJQiUCRcLyHj-295" connectable="0" vertex="1">
          <mxGeometry relative="1" as="geometry">
            <mxPoint x="200" as="offset" />
          </mxGeometry>
        </mxCell>
        <mxCell id="TC_qHAJ1gJQiUCRcLyHj-297" value="" style="endArrow=classic;html=1;rounded=0;strokeColor=default;align=center;verticalAlign=middle;fontFamily=Helvetica;fontSize=11;fontColor=default;labelBackgroundColor=default;resizable=0;edgeStyle=orthogonalEdgeStyle;curved=1;entryX=0;entryY=0.5;entryDx=0;entryDy=0;" parent="78cTH-3rYRoWqbKTk_js-3" target="TC_qHAJ1gJQiUCRcLyHj-299" edge="1">
          <mxGeometry relative="1" as="geometry">
            <mxPoint x="2980" y="925" as="sourcePoint" />
            <mxPoint x="3140" y="925" as="targetPoint" />
          </mxGeometry>
        </mxCell>
        <mxCell id="TC_qHAJ1gJQiUCRcLyHj-298" value="&lt;font style=&quot;font-size: 14px;&quot;&gt;Corresponde a&lt;/font&gt;" style="edgeLabel;resizable=0;html=1;;align=center;verticalAlign=middle;fontFamily=Helvetica;fontSize=11;fontColor=default;labelBackgroundColor=default;fillColor=none;gradientColor=none;" parent="TC_qHAJ1gJQiUCRcLyHj-297" connectable="0" vertex="1">
          <mxGeometry relative="1" as="geometry" />
        </mxCell>
        <mxCell id="TC_qHAJ1gJQiUCRcLyHj-299" value="&lt;div style=&quot;text-align: left;&quot;&gt;&lt;span style=&quot;font-size: 14px; text-wrap: nowrap; background-color: rgb(255, 255, 255);&quot;&gt;Chave&lt;/span&gt;&lt;/div&gt;" style="whiteSpace=wrap;html=1;rounded=1;" parent="78cTH-3rYRoWqbKTk_js-3" vertex="1">
          <mxGeometry x="3140" y="925" width="50" height="30" as="geometry" />
        </mxCell>
        <mxCell id="TC_qHAJ1gJQiUCRcLyHj-300" value="Os mesmos propósitos da vibração, detectar níveis não adequados para evitar desgaste e mal funcionamento." style="rounded=1;whiteSpace=wrap;html=1;" parent="78cTH-3rYRoWqbKTk_js-3" vertex="1">
          <mxGeometry x="2650" y="1035" width="270" height="60" as="geometry" />
        </mxCell>
        <mxCell id="TC_qHAJ1gJQiUCRcLyHj-303" value="&lt;font style=&quot;font-size: 16px;&quot;&gt;Implica em medir&lt;/font&gt;" style="text;html=1;align=center;verticalAlign=middle;resizable=0;points=[];autosize=1;strokeColor=none;fillColor=none;fontFamily=Helvetica;fontSize=11;fontColor=default;labelBackgroundColor=default;" parent="78cTH-3rYRoWqbKTk_js-3" vertex="1">
          <mxGeometry x="2100" y="1670" width="150" height="30" as="geometry" />
        </mxCell>
        <mxCell id="TC_qHAJ1gJQiUCRcLyHj-391" style="edgeStyle=orthogonalEdgeStyle;curved=1;rounded=0;orthogonalLoop=1;jettySize=auto;html=1;exitX=0;exitY=0.5;exitDx=0;exitDy=0;entryX=1;entryY=0.5;entryDx=0;entryDy=0;strokeColor=default;align=center;verticalAlign=middle;fontFamily=Helvetica;fontSize=11;fontColor=default;labelBackgroundColor=default;resizable=0;endArrow=classic;" parent="78cTH-3rYRoWqbKTk_js-3" source="TC_qHAJ1gJQiUCRcLyHj-308" target="TC_qHAJ1gJQiUCRcLyHj-327" edge="1">
          <mxGeometry relative="1" as="geometry">
            <Array as="points">
              <mxPoint x="1590" y="790" />
              <mxPoint x="1420" y="790" />
              <mxPoint x="1420" y="565" />
            </Array>
          </mxGeometry>
        </mxCell>
        <mxCell id="TC_qHAJ1gJQiUCRcLyHj-392" style="edgeStyle=orthogonalEdgeStyle;curved=1;rounded=0;orthogonalLoop=1;jettySize=auto;html=1;exitX=0;exitY=0.5;exitDx=0;exitDy=0;entryX=1;entryY=0.5;entryDx=0;entryDy=0;strokeColor=default;align=center;verticalAlign=middle;fontFamily=Helvetica;fontSize=11;fontColor=default;labelBackgroundColor=default;resizable=0;endArrow=classic;" parent="78cTH-3rYRoWqbKTk_js-3" source="TC_qHAJ1gJQiUCRcLyHj-308" target="TC_qHAJ1gJQiUCRcLyHj-341" edge="1">
          <mxGeometry relative="1" as="geometry">
            <Array as="points">
              <mxPoint x="1590" y="790" />
              <mxPoint x="1455" y="790" />
              <mxPoint x="1455" y="925" />
            </Array>
          </mxGeometry>
        </mxCell>
        <mxCell id="TC_qHAJ1gJQiUCRcLyHj-393" style="edgeStyle=orthogonalEdgeStyle;curved=1;rounded=0;orthogonalLoop=1;jettySize=auto;html=1;exitX=0;exitY=0.5;exitDx=0;exitDy=0;entryX=1;entryY=0.5;entryDx=0;entryDy=0;strokeColor=default;align=center;verticalAlign=middle;fontFamily=Helvetica;fontSize=11;fontColor=default;labelBackgroundColor=default;resizable=0;endArrow=classic;" parent="78cTH-3rYRoWqbKTk_js-3" source="TC_qHAJ1gJQiUCRcLyHj-308" target="TC_qHAJ1gJQiUCRcLyHj-310" edge="1">
          <mxGeometry relative="1" as="geometry">
            <Array as="points">
              <mxPoint x="1590" y="790" />
              <mxPoint x="1445" y="790" />
              <mxPoint x="1445" y="195" />
            </Array>
          </mxGeometry>
        </mxCell>
        <mxCell id="TC_qHAJ1gJQiUCRcLyHj-397" style="edgeStyle=orthogonalEdgeStyle;curved=1;rounded=0;orthogonalLoop=1;jettySize=auto;html=1;exitX=0;exitY=0.5;exitDx=0;exitDy=0;entryX=1;entryY=0.5;entryDx=0;entryDy=0;strokeColor=default;align=center;verticalAlign=middle;fontFamily=Helvetica;fontSize=11;fontColor=default;labelBackgroundColor=default;resizable=0;endArrow=classic;" parent="78cTH-3rYRoWqbKTk_js-3" source="TC_qHAJ1gJQiUCRcLyHj-308" target="TC_qHAJ1gJQiUCRcLyHj-360" edge="1">
          <mxGeometry relative="1" as="geometry">
            <Array as="points">
              <mxPoint x="1590" y="790" />
              <mxPoint x="1455" y="790" />
              <mxPoint x="1455" y="1485" />
            </Array>
          </mxGeometry>
        </mxCell>
        <mxCell id="TC_qHAJ1gJQiUCRcLyHj-398" style="edgeStyle=orthogonalEdgeStyle;curved=1;rounded=0;orthogonalLoop=1;jettySize=auto;html=1;exitX=0;exitY=0.5;exitDx=0;exitDy=0;entryX=1;entryY=0.5;entryDx=0;entryDy=0;strokeColor=default;align=center;verticalAlign=middle;fontFamily=Helvetica;fontSize=11;fontColor=default;labelBackgroundColor=default;resizable=0;endArrow=classic;" parent="78cTH-3rYRoWqbKTk_js-3" source="TC_qHAJ1gJQiUCRcLyHj-308" target="TC_qHAJ1gJQiUCRcLyHj-373" edge="1">
          <mxGeometry relative="1" as="geometry">
            <Array as="points">
              <mxPoint x="1590" y="790" />
              <mxPoint x="1470" y="790" />
              <mxPoint x="1470" y="1855" />
            </Array>
          </mxGeometry>
        </mxCell>
        <mxCell id="TC_qHAJ1gJQiUCRcLyHj-308" value="&lt;font style=&quot;font-size: 16px;&quot;&gt;&lt;b&gt;De Deslocamento&lt;/b&gt;&lt;/font&gt;" style="rounded=1;whiteSpace=wrap;html=1;" parent="78cTH-3rYRoWqbKTk_js-3" vertex="1">
          <mxGeometry x="1640" y="760" width="120" height="60" as="geometry" />
        </mxCell>
        <mxCell id="TC_qHAJ1gJQiUCRcLyHj-313" value="&lt;font style=&quot;font-size: 14px;&quot;&gt;Utilizando Sensores&lt;/font&gt;" style="edgeStyle=orthogonalEdgeStyle;curved=1;rounded=0;orthogonalLoop=1;jettySize=auto;html=1;exitX=0;exitY=0.5;exitDx=0;exitDy=0;entryX=1;entryY=0.5;entryDx=0;entryDy=0;strokeColor=default;align=center;verticalAlign=middle;fontFamily=Helvetica;fontSize=11;fontColor=default;labelBackgroundColor=default;resizable=0;endArrow=classic;" parent="78cTH-3rYRoWqbKTk_js-3" source="TC_qHAJ1gJQiUCRcLyHj-310" target="TC_qHAJ1gJQiUCRcLyHj-312" edge="1">
          <mxGeometry x="-0.6154" y="45" relative="1" as="geometry">
            <mxPoint as="offset" />
          </mxGeometry>
        </mxCell>
        <mxCell id="TC_qHAJ1gJQiUCRcLyHj-324" style="edgeStyle=orthogonalEdgeStyle;curved=1;rounded=0;orthogonalLoop=1;jettySize=auto;html=1;exitX=0;exitY=0.5;exitDx=0;exitDy=0;entryX=1;entryY=0.5;entryDx=0;entryDy=0;strokeColor=default;align=center;verticalAlign=middle;fontFamily=Helvetica;fontSize=11;fontColor=default;labelBackgroundColor=default;resizable=0;endArrow=classic;" parent="78cTH-3rYRoWqbKTk_js-3" source="TC_qHAJ1gJQiUCRcLyHj-310" target="TC_qHAJ1gJQiUCRcLyHj-321" edge="1">
          <mxGeometry relative="1" as="geometry" />
        </mxCell>
        <mxCell id="TC_qHAJ1gJQiUCRcLyHj-310" value="&lt;font style=&quot;font-size: 16px;&quot;&gt;&lt;b&gt;Resistência&lt;/b&gt;&lt;/font&gt;" style="rounded=1;whiteSpace=wrap;html=1;" parent="78cTH-3rYRoWqbKTk_js-3" vertex="1">
          <mxGeometry x="1180" y="165" width="120" height="60" as="geometry" />
        </mxCell>
        <mxCell id="TC_qHAJ1gJQiUCRcLyHj-315" value="funciona por" style="edgeStyle=orthogonalEdgeStyle;curved=1;rounded=0;orthogonalLoop=1;jettySize=auto;html=1;exitX=0;exitY=0.5;exitDx=0;exitDy=0;entryX=1;entryY=0.5;entryDx=0;entryDy=0;strokeColor=default;align=center;verticalAlign=middle;fontFamily=Helvetica;fontSize=11;fontColor=default;labelBackgroundColor=default;resizable=0;endArrow=classic;" parent="78cTH-3rYRoWqbKTk_js-3" source="TC_qHAJ1gJQiUCRcLyHj-312" target="TC_qHAJ1gJQiUCRcLyHj-314" edge="1">
          <mxGeometry x="0.1053" y="-5" relative="1" as="geometry">
            <mxPoint as="offset" />
          </mxGeometry>
        </mxCell>
        <mxCell id="TC_qHAJ1gJQiUCRcLyHj-318" value="Utilizado em" style="edgeStyle=orthogonalEdgeStyle;curved=1;rounded=0;orthogonalLoop=1;jettySize=auto;html=1;exitX=0;exitY=0.5;exitDx=0;exitDy=0;entryX=1;entryY=0.5;entryDx=0;entryDy=0;strokeColor=default;align=center;verticalAlign=middle;fontFamily=Helvetica;fontSize=11;fontColor=default;labelBackgroundColor=default;resizable=0;endArrow=classic;" parent="78cTH-3rYRoWqbKTk_js-3" source="TC_qHAJ1gJQiUCRcLyHj-312" target="TC_qHAJ1gJQiUCRcLyHj-317" edge="1">
          <mxGeometry relative="1" as="geometry" />
        </mxCell>
        <mxCell id="TC_qHAJ1gJQiUCRcLyHj-312" value="&lt;font style=&quot;font-size: 16px;&quot;&gt;&lt;b&gt;Potenciômétricos&lt;/b&gt;&lt;/font&gt;" style="rounded=1;whiteSpace=wrap;html=1;" parent="78cTH-3rYRoWqbKTk_js-3" vertex="1">
          <mxGeometry x="940" y="85" width="190" height="60" as="geometry" />
        </mxCell>
        <mxCell id="TC_qHAJ1gJQiUCRcLyHj-314" value="&lt;font style=&quot;font-size: 14px;&quot;&gt;Uma esistência elétrica alterada pela posição de um cursor&lt;br&gt;em relação à resistência.&lt;/font&gt;" style="rounded=1;whiteSpace=wrap;html=1;" parent="78cTH-3rYRoWqbKTk_js-3" vertex="1">
          <mxGeometry x="540" y="45" width="220" height="60" as="geometry" />
        </mxCell>
        <mxCell id="TC_qHAJ1gJQiUCRcLyHj-317" value="Válvulas de controle.&amp;nbsp;" style="rounded=1;whiteSpace=wrap;html=1;" parent="78cTH-3rYRoWqbKTk_js-3" vertex="1">
          <mxGeometry x="630" y="155" width="130" height="40" as="geometry" />
        </mxCell>
        <mxCell id="TC_qHAJ1gJQiUCRcLyHj-319" value="funciona por" style="edgeStyle=orthogonalEdgeStyle;curved=1;rounded=0;orthogonalLoop=1;jettySize=auto;html=1;exitX=0;exitY=0.5;exitDx=0;exitDy=0;entryX=1;entryY=0.5;entryDx=0;entryDy=0;strokeColor=default;align=center;verticalAlign=middle;fontFamily=Helvetica;fontSize=11;fontColor=default;labelBackgroundColor=default;resizable=0;endArrow=classic;" parent="78cTH-3rYRoWqbKTk_js-3" source="TC_qHAJ1gJQiUCRcLyHj-321" target="TC_qHAJ1gJQiUCRcLyHj-322" edge="1">
          <mxGeometry x="0.1053" y="-5" relative="1" as="geometry">
            <mxPoint as="offset" />
          </mxGeometry>
        </mxCell>
        <mxCell id="TC_qHAJ1gJQiUCRcLyHj-320" value="Utilizado em" style="edgeStyle=orthogonalEdgeStyle;curved=1;rounded=0;orthogonalLoop=1;jettySize=auto;html=1;exitX=0;exitY=0.5;exitDx=0;exitDy=0;entryX=1;entryY=0.5;entryDx=0;entryDy=0;strokeColor=default;align=center;verticalAlign=middle;fontFamily=Helvetica;fontSize=11;fontColor=default;labelBackgroundColor=default;resizable=0;endArrow=classic;" parent="78cTH-3rYRoWqbKTk_js-3" source="TC_qHAJ1gJQiUCRcLyHj-321" target="TC_qHAJ1gJQiUCRcLyHj-323" edge="1">
          <mxGeometry relative="1" as="geometry" />
        </mxCell>
        <mxCell id="TC_qHAJ1gJQiUCRcLyHj-321" value="&lt;font style=&quot;font-size: 16px;&quot;&gt;&lt;b&gt;Magnetoresistivos&lt;/b&gt;&lt;/font&gt;" style="rounded=1;whiteSpace=wrap;html=1;" parent="78cTH-3rYRoWqbKTk_js-3" vertex="1">
          <mxGeometry x="980" y="275" width="150" height="60" as="geometry" />
        </mxCell>
        <mxCell id="TC_qHAJ1gJQiUCRcLyHj-322" value="&lt;font style=&quot;font-size: 14px;&quot;&gt;Uma resistência elétrica alterada devido a presença de um campo magnético externo. A resistência diminui com a aplicação de um campo magnético transversal ao fluxo de corrente&lt;/font&gt;" style="rounded=1;whiteSpace=wrap;html=1;" parent="78cTH-3rYRoWqbKTk_js-3" vertex="1">
          <mxGeometry x="420" y="235" width="410" height="60" as="geometry" />
        </mxCell>
        <mxCell id="TC_qHAJ1gJQiUCRcLyHj-323" value="Magnetoresistências gigantes em&lt;br/&gt;ponte de Wheatstone" style="rounded=1;whiteSpace=wrap;html=1;" parent="78cTH-3rYRoWqbKTk_js-3" vertex="1">
          <mxGeometry x="630" y="350" width="200" height="40" as="geometry" />
        </mxCell>
        <mxCell id="TC_qHAJ1gJQiUCRcLyHj-325" value="&lt;font style=&quot;font-size: 14px;&quot;&gt;Utilizando Sensores&lt;/font&gt;" style="edgeStyle=orthogonalEdgeStyle;curved=1;rounded=0;orthogonalLoop=1;jettySize=auto;html=1;exitX=0;exitY=0.5;exitDx=0;exitDy=0;entryX=1;entryY=0.5;entryDx=0;entryDy=0;strokeColor=default;align=center;verticalAlign=middle;fontFamily=Helvetica;fontSize=11;fontColor=default;labelBackgroundColor=default;resizable=0;endArrow=classic;" parent="78cTH-3rYRoWqbKTk_js-3" source="TC_qHAJ1gJQiUCRcLyHj-327" target="TC_qHAJ1gJQiUCRcLyHj-330" edge="1">
          <mxGeometry x="-0.6154" y="45" relative="1" as="geometry">
            <mxPoint as="offset" />
          </mxGeometry>
        </mxCell>
        <mxCell id="TC_qHAJ1gJQiUCRcLyHj-326" style="edgeStyle=orthogonalEdgeStyle;curved=1;rounded=0;orthogonalLoop=1;jettySize=auto;html=1;exitX=0;exitY=0.5;exitDx=0;exitDy=0;entryX=1;entryY=0.5;entryDx=0;entryDy=0;strokeColor=default;align=center;verticalAlign=middle;fontFamily=Helvetica;fontSize=11;fontColor=default;labelBackgroundColor=default;resizable=0;endArrow=classic;" parent="78cTH-3rYRoWqbKTk_js-3" source="TC_qHAJ1gJQiUCRcLyHj-327" target="TC_qHAJ1gJQiUCRcLyHj-335" edge="1">
          <mxGeometry relative="1" as="geometry" />
        </mxCell>
        <mxCell id="TC_qHAJ1gJQiUCRcLyHj-327" value="&lt;font style=&quot;font-size: 16px;&quot;&gt;&lt;b&gt;Capacitância&lt;/b&gt;&lt;/font&gt;" style="rounded=1;whiteSpace=wrap;html=1;" parent="78cTH-3rYRoWqbKTk_js-3" vertex="1">
          <mxGeometry x="1200" y="535" width="120" height="60" as="geometry" />
        </mxCell>
        <mxCell id="TC_qHAJ1gJQiUCRcLyHj-328" value="funciona por" style="edgeStyle=orthogonalEdgeStyle;curved=1;rounded=0;orthogonalLoop=1;jettySize=auto;html=1;exitX=0;exitY=0.5;exitDx=0;exitDy=0;entryX=1;entryY=0.5;entryDx=0;entryDy=0;strokeColor=default;align=center;verticalAlign=middle;fontFamily=Helvetica;fontSize=11;fontColor=default;labelBackgroundColor=default;resizable=0;endArrow=classic;" parent="78cTH-3rYRoWqbKTk_js-3" source="TC_qHAJ1gJQiUCRcLyHj-330" target="TC_qHAJ1gJQiUCRcLyHj-331" edge="1">
          <mxGeometry x="0.1053" y="-5" relative="1" as="geometry">
            <mxPoint as="offset" />
          </mxGeometry>
        </mxCell>
        <mxCell id="TC_qHAJ1gJQiUCRcLyHj-329" value="Utilizado em" style="edgeStyle=orthogonalEdgeStyle;curved=1;rounded=0;orthogonalLoop=1;jettySize=auto;html=1;exitX=0;exitY=0.5;exitDx=0;exitDy=0;entryX=1;entryY=0.5;entryDx=0;entryDy=0;strokeColor=default;align=center;verticalAlign=middle;fontFamily=Helvetica;fontSize=11;fontColor=default;labelBackgroundColor=default;resizable=0;endArrow=classic;" parent="78cTH-3rYRoWqbKTk_js-3" source="TC_qHAJ1gJQiUCRcLyHj-330" target="TC_qHAJ1gJQiUCRcLyHj-332" edge="1">
          <mxGeometry relative="1" as="geometry" />
        </mxCell>
        <mxCell id="TC_qHAJ1gJQiUCRcLyHj-330" value="&lt;span style=&quot;font-size: 16px;&quot;&gt;&lt;b&gt;Capacitivo de Proximidade - Discretos&lt;/b&gt;&lt;/span&gt;" style="rounded=1;whiteSpace=wrap;html=1;" parent="78cTH-3rYRoWqbKTk_js-3" vertex="1">
          <mxGeometry x="960" y="455" width="190" height="60" as="geometry" />
        </mxCell>
        <mxCell id="TC_qHAJ1gJQiUCRcLyHj-331" value="&lt;font style=&quot;font-size: 14px;&quot;&gt;Uma variação na capacitância produz uma variação de frequência, que é convertida em variação de tensão, por meio de um conversor frequência/tensão.&lt;/font&gt;" style="rounded=1;whiteSpace=wrap;html=1;" parent="78cTH-3rYRoWqbKTk_js-3" vertex="1">
          <mxGeometry x="340" y="415" width="340" height="60" as="geometry" />
        </mxCell>
        <mxCell id="TC_qHAJ1gJQiUCRcLyHj-332" value="Medição de posicionamento com alta&lt;br/&gt;precisão" style="rounded=1;whiteSpace=wrap;html=1;" parent="78cTH-3rYRoWqbKTk_js-3" vertex="1">
          <mxGeometry x="560" y="525" width="220" height="40" as="geometry" />
        </mxCell>
        <mxCell id="TC_qHAJ1gJQiUCRcLyHj-333" value="funciona por" style="edgeStyle=orthogonalEdgeStyle;curved=1;rounded=0;orthogonalLoop=1;jettySize=auto;html=1;exitX=0;exitY=0.5;exitDx=0;exitDy=0;entryX=1;entryY=0.5;entryDx=0;entryDy=0;strokeColor=default;align=center;verticalAlign=middle;fontFamily=Helvetica;fontSize=11;fontColor=default;labelBackgroundColor=default;resizable=0;endArrow=classic;" parent="78cTH-3rYRoWqbKTk_js-3" source="TC_qHAJ1gJQiUCRcLyHj-335" target="TC_qHAJ1gJQiUCRcLyHj-336" edge="1">
          <mxGeometry x="0.1053" y="-5" relative="1" as="geometry">
            <mxPoint as="offset" />
          </mxGeometry>
        </mxCell>
        <mxCell id="TC_qHAJ1gJQiUCRcLyHj-334" value="Utilizado em" style="edgeStyle=orthogonalEdgeStyle;curved=1;rounded=0;orthogonalLoop=1;jettySize=auto;html=1;exitX=0;exitY=0.5;exitDx=0;exitDy=0;entryX=1;entryY=0.5;entryDx=0;entryDy=0;strokeColor=default;align=center;verticalAlign=middle;fontFamily=Helvetica;fontSize=11;fontColor=default;labelBackgroundColor=default;resizable=0;endArrow=classic;" parent="78cTH-3rYRoWqbKTk_js-3" source="TC_qHAJ1gJQiUCRcLyHj-335" target="TC_qHAJ1gJQiUCRcLyHj-337" edge="1">
          <mxGeometry relative="1" as="geometry" />
        </mxCell>
        <mxCell id="TC_qHAJ1gJQiUCRcLyHj-335" value="&lt;b style=&quot;font-size: 16px;&quot;&gt;Capacitivo de Proximidade - Contínuos&lt;/b&gt;" style="rounded=1;whiteSpace=wrap;html=1;" parent="78cTH-3rYRoWqbKTk_js-3" vertex="1">
          <mxGeometry x="950" y="645" width="200" height="60" as="geometry" />
        </mxCell>
        <mxCell id="TC_qHAJ1gJQiUCRcLyHj-336" value="&lt;font style=&quot;font-size: 14px;&quot;&gt;Um campo elétrico gerado na região sensora (ponta) e um circuito eletrônico converte a variação de capacitância, entre o sensor e o objeto, em tensão. &lt;/font&gt;" style="rounded=1;whiteSpace=wrap;html=1;" parent="78cTH-3rYRoWqbKTk_js-3" vertex="1">
          <mxGeometry x="410" y="605" width="340" height="60" as="geometry" />
        </mxCell>
        <mxCell id="TC_qHAJ1gJQiUCRcLyHj-337" value="Para aplicações em ambientes&lt;br/&gt;limpos, máquinas de corte&amp;nbsp;" style="rounded=1;whiteSpace=wrap;html=1;" parent="78cTH-3rYRoWqbKTk_js-3" vertex="1">
          <mxGeometry x="650" y="720" width="200" height="40" as="geometry" />
        </mxCell>
        <mxCell id="TC_qHAJ1gJQiUCRcLyHj-339" value="&lt;font style=&quot;font-size: 14px;&quot;&gt;Utilizando&lt;/font&gt;" style="edgeStyle=orthogonalEdgeStyle;curved=1;rounded=0;orthogonalLoop=1;jettySize=auto;html=1;exitX=0;exitY=0.5;exitDx=0;exitDy=0;entryX=1;entryY=0.5;entryDx=0;entryDy=0;strokeColor=default;align=center;verticalAlign=middle;fontFamily=Helvetica;fontSize=11;fontColor=default;labelBackgroundColor=default;resizable=0;endArrow=classic;" parent="78cTH-3rYRoWqbKTk_js-3" source="TC_qHAJ1gJQiUCRcLyHj-341" target="TC_qHAJ1gJQiUCRcLyHj-344" edge="1">
          <mxGeometry x="-0.6154" y="45" relative="1" as="geometry">
            <mxPoint as="offset" />
          </mxGeometry>
        </mxCell>
        <mxCell id="TC_qHAJ1gJQiUCRcLyHj-340" style="edgeStyle=orthogonalEdgeStyle;curved=1;rounded=0;orthogonalLoop=1;jettySize=auto;html=1;exitX=0;exitY=0.5;exitDx=0;exitDy=0;entryX=1;entryY=0.5;entryDx=0;entryDy=0;strokeColor=default;align=center;verticalAlign=middle;fontFamily=Helvetica;fontSize=11;fontColor=default;labelBackgroundColor=default;resizable=0;endArrow=classic;" parent="78cTH-3rYRoWqbKTk_js-3" source="TC_qHAJ1gJQiUCRcLyHj-341" target="TC_qHAJ1gJQiUCRcLyHj-349" edge="1">
          <mxGeometry relative="1" as="geometry" />
        </mxCell>
        <mxCell id="TC_qHAJ1gJQiUCRcLyHj-357" style="edgeStyle=orthogonalEdgeStyle;curved=1;rounded=0;orthogonalLoop=1;jettySize=auto;html=1;exitX=0;exitY=0.5;exitDx=0;exitDy=0;entryX=1;entryY=0.5;entryDx=0;entryDy=0;strokeColor=default;align=center;verticalAlign=middle;fontFamily=Helvetica;fontSize=11;fontColor=default;labelBackgroundColor=default;resizable=0;endArrow=classic;" parent="78cTH-3rYRoWqbKTk_js-3" source="TC_qHAJ1gJQiUCRcLyHj-341" target="TC_qHAJ1gJQiUCRcLyHj-354" edge="1">
          <mxGeometry relative="1" as="geometry" />
        </mxCell>
        <mxCell id="TC_qHAJ1gJQiUCRcLyHj-341" value="&lt;font style=&quot;font-size: 16px;&quot;&gt;&lt;b&gt;Indutância&lt;/b&gt;&lt;/font&gt;" style="rounded=1;whiteSpace=wrap;html=1;" parent="78cTH-3rYRoWqbKTk_js-3" vertex="1">
          <mxGeometry x="1200" y="895" width="120" height="60" as="geometry" />
        </mxCell>
        <mxCell id="TC_qHAJ1gJQiUCRcLyHj-342" value="funciona por" style="edgeStyle=orthogonalEdgeStyle;curved=1;rounded=0;orthogonalLoop=1;jettySize=auto;html=1;exitX=0;exitY=0.5;exitDx=0;exitDy=0;entryX=1;entryY=0.5;entryDx=0;entryDy=0;strokeColor=default;align=center;verticalAlign=middle;fontFamily=Helvetica;fontSize=11;fontColor=default;labelBackgroundColor=default;resizable=0;endArrow=classic;" parent="78cTH-3rYRoWqbKTk_js-3" source="TC_qHAJ1gJQiUCRcLyHj-344" target="TC_qHAJ1gJQiUCRcLyHj-345" edge="1">
          <mxGeometry x="0.1053" y="-5" relative="1" as="geometry">
            <mxPoint as="offset" />
          </mxGeometry>
        </mxCell>
        <mxCell id="TC_qHAJ1gJQiUCRcLyHj-343" value="Utilizado em" style="edgeStyle=orthogonalEdgeStyle;curved=1;rounded=0;orthogonalLoop=1;jettySize=auto;html=1;exitX=0;exitY=0.5;exitDx=0;exitDy=0;entryX=1;entryY=0.5;entryDx=0;entryDy=0;strokeColor=default;align=center;verticalAlign=middle;fontFamily=Helvetica;fontSize=11;fontColor=default;labelBackgroundColor=default;resizable=0;endArrow=classic;" parent="78cTH-3rYRoWqbKTk_js-3" source="TC_qHAJ1gJQiUCRcLyHj-344" target="TC_qHAJ1gJQiUCRcLyHj-346" edge="1">
          <mxGeometry relative="1" as="geometry" />
        </mxCell>
        <mxCell id="TC_qHAJ1gJQiUCRcLyHj-344" value="&lt;font style=&quot;font-size: 16px;&quot;&gt;&lt;b&gt;Sonda de Deslocamento Indutivo - Contínuo&lt;/b&gt;&lt;/font&gt;" style="rounded=1;whiteSpace=wrap;html=1;" parent="78cTH-3rYRoWqbKTk_js-3" vertex="1">
          <mxGeometry x="960" y="815" width="190" height="60" as="geometry" />
        </mxCell>
        <mxCell id="TC_qHAJ1gJQiUCRcLyHj-345" value="&lt;font style=&quot;font-size: 14px;&quot;&gt;Possui um circuito oscilador, que cria um campo magnético, oscilante e simétrico, na face da sonda. Quando um objeto metálico se aproxima do campo magnético do sensor, correntes parasitas são induzidas neste objeto e circulam por ele, gerando um outro campo magnético em oposição ao primeiro.&amp;nbsp;&lt;/font&gt;" style="rounded=1;whiteSpace=wrap;html=1;" parent="78cTH-3rYRoWqbKTk_js-3" vertex="1">
          <mxGeometry x="120" y="775" width="660" height="60" as="geometry" />
        </mxCell>
        <mxCell id="TC_qHAJ1gJQiUCRcLyHj-346" value="Monitoramento de vibração relativa." style="rounded=1;whiteSpace=wrap;html=1;" parent="78cTH-3rYRoWqbKTk_js-3" vertex="1">
          <mxGeometry x="650" y="885" width="130" height="40" as="geometry" />
        </mxCell>
        <mxCell id="TC_qHAJ1gJQiUCRcLyHj-347" value="funciona por" style="edgeStyle=orthogonalEdgeStyle;curved=1;rounded=0;orthogonalLoop=1;jettySize=auto;html=1;exitX=0;exitY=0.5;exitDx=0;exitDy=0;entryX=1;entryY=0.5;entryDx=0;entryDy=0;strokeColor=default;align=center;verticalAlign=middle;fontFamily=Helvetica;fontSize=11;fontColor=default;labelBackgroundColor=default;resizable=0;endArrow=classic;" parent="78cTH-3rYRoWqbKTk_js-3" source="TC_qHAJ1gJQiUCRcLyHj-349" target="TC_qHAJ1gJQiUCRcLyHj-350" edge="1">
          <mxGeometry x="0.1053" y="-5" relative="1" as="geometry">
            <mxPoint as="offset" />
          </mxGeometry>
        </mxCell>
        <mxCell id="TC_qHAJ1gJQiUCRcLyHj-348" value="Utilizado em" style="edgeStyle=orthogonalEdgeStyle;curved=1;rounded=0;orthogonalLoop=1;jettySize=auto;html=1;exitX=0;exitY=0.5;exitDx=0;exitDy=0;entryX=1;entryY=0.5;entryDx=0;entryDy=0;strokeColor=default;align=center;verticalAlign=middle;fontFamily=Helvetica;fontSize=11;fontColor=default;labelBackgroundColor=default;resizable=0;endArrow=classic;" parent="78cTH-3rYRoWqbKTk_js-3" source="TC_qHAJ1gJQiUCRcLyHj-349" target="TC_qHAJ1gJQiUCRcLyHj-351" edge="1">
          <mxGeometry relative="1" as="geometry" />
        </mxCell>
        <mxCell id="TC_qHAJ1gJQiUCRcLyHj-349" value="&lt;b style=&quot;font-size: 16px;&quot;&gt;Sonda de Deslocamento Indutivo - Discreto&lt;/b&gt;" style="rounded=1;whiteSpace=wrap;html=1;" parent="78cTH-3rYRoWqbKTk_js-3" vertex="1">
          <mxGeometry x="960" y="1005" width="190" height="60" as="geometry" />
        </mxCell>
        <mxCell id="TC_qHAJ1gJQiUCRcLyHj-350" value="&lt;font style=&quot;font-size: 14px;&quot;&gt;Igual contínuo, todavia estes detectam&lt;br&gt;apenas a variação da amplitude do sinal&lt;br&gt;na saída do oscilador.&lt;/font&gt;" style="rounded=1;whiteSpace=wrap;html=1;" parent="78cTH-3rYRoWqbKTk_js-3" vertex="1">
          <mxGeometry x="590" y="965" width="260" height="60" as="geometry" />
        </mxCell>
        <mxCell id="TC_qHAJ1gJQiUCRcLyHj-351" value="Detecção de presença ou ausência&lt;br&gt;de um material metálico." style="rounded=1;whiteSpace=wrap;html=1;" parent="78cTH-3rYRoWqbKTk_js-3" vertex="1">
          <mxGeometry x="650" y="1080" width="200" height="40" as="geometry" />
        </mxCell>
        <mxCell id="TC_qHAJ1gJQiUCRcLyHj-352" value="funciona por" style="edgeStyle=orthogonalEdgeStyle;curved=1;rounded=0;orthogonalLoop=1;jettySize=auto;html=1;exitX=0;exitY=0.5;exitDx=0;exitDy=0;entryX=1;entryY=0.5;entryDx=0;entryDy=0;strokeColor=default;align=center;verticalAlign=middle;fontFamily=Helvetica;fontSize=11;fontColor=default;labelBackgroundColor=default;resizable=0;endArrow=classic;" parent="78cTH-3rYRoWqbKTk_js-3" source="TC_qHAJ1gJQiUCRcLyHj-354" target="TC_qHAJ1gJQiUCRcLyHj-355" edge="1">
          <mxGeometry x="0.1053" y="-5" relative="1" as="geometry">
            <mxPoint as="offset" />
          </mxGeometry>
        </mxCell>
        <mxCell id="TC_qHAJ1gJQiUCRcLyHj-353" value="Utilizado em" style="edgeStyle=orthogonalEdgeStyle;curved=1;rounded=0;orthogonalLoop=1;jettySize=auto;html=1;exitX=0;exitY=0.5;exitDx=0;exitDy=0;entryX=1;entryY=0.5;entryDx=0;entryDy=0;strokeColor=default;align=center;verticalAlign=middle;fontFamily=Helvetica;fontSize=11;fontColor=default;labelBackgroundColor=default;resizable=0;endArrow=classic;" parent="78cTH-3rYRoWqbKTk_js-3" source="TC_qHAJ1gJQiUCRcLyHj-354" target="TC_qHAJ1gJQiUCRcLyHj-356" edge="1">
          <mxGeometry relative="1" as="geometry" />
        </mxCell>
        <mxCell id="TC_qHAJ1gJQiUCRcLyHj-354" value="&lt;b style=&quot;font-size: 16px;&quot;&gt;LVDT&lt;/b&gt;" style="rounded=1;whiteSpace=wrap;html=1;" parent="78cTH-3rYRoWqbKTk_js-3" vertex="1">
          <mxGeometry x="960" y="1185" width="190" height="60" as="geometry" />
        </mxCell>
        <mxCell id="TC_qHAJ1gJQiUCRcLyHj-355" value="&lt;font style=&quot;font-size: 14px;&quot;&gt;O transformador tem um enrolamento primário e dois enrolamentos secundários ligados em fases inversas. O movimento do núcleo altera a tensão nos secundários, causando o seu aumento no mesmo sentido em que o núcleo se moveu.&lt;/font&gt;&amp;nbsp;" style="rounded=1;whiteSpace=wrap;html=1;" parent="78cTH-3rYRoWqbKTk_js-3" vertex="1">
          <mxGeometry x="310" y="1145" width="540" height="60" as="geometry" />
        </mxCell>
        <mxCell id="TC_qHAJ1gJQiUCRcLyHj-356" value="Um estudo de laje mista utilizou como equipamentos de medição de deslocamentos verticais, laterais e deslizamento da laje.&amp;nbsp;" style="rounded=1;whiteSpace=wrap;html=1;" parent="78cTH-3rYRoWqbKTk_js-3" vertex="1">
          <mxGeometry x="490" y="1260" width="360" height="40" as="geometry" />
        </mxCell>
        <mxCell id="TC_qHAJ1gJQiUCRcLyHj-358" value="&lt;font style=&quot;font-size: 14px;&quot;&gt;Utilizando&amp;nbsp;&lt;/font&gt;" style="edgeStyle=orthogonalEdgeStyle;curved=1;rounded=0;orthogonalLoop=1;jettySize=auto;html=1;exitX=0;exitY=0.5;exitDx=0;exitDy=0;entryX=1;entryY=0.5;entryDx=0;entryDy=0;strokeColor=default;align=center;verticalAlign=middle;fontFamily=Helvetica;fontSize=11;fontColor=default;labelBackgroundColor=default;resizable=0;endArrow=classic;" parent="78cTH-3rYRoWqbKTk_js-3" source="TC_qHAJ1gJQiUCRcLyHj-360" target="TC_qHAJ1gJQiUCRcLyHj-363" edge="1">
          <mxGeometry x="-0.6154" y="15" relative="1" as="geometry">
            <mxPoint as="offset" />
          </mxGeometry>
        </mxCell>
        <mxCell id="TC_qHAJ1gJQiUCRcLyHj-359" style="edgeStyle=orthogonalEdgeStyle;curved=1;rounded=0;orthogonalLoop=1;jettySize=auto;html=1;exitX=0;exitY=0.5;exitDx=0;exitDy=0;entryX=1;entryY=0.5;entryDx=0;entryDy=0;strokeColor=default;align=center;verticalAlign=middle;fontFamily=Helvetica;fontSize=11;fontColor=default;labelBackgroundColor=default;resizable=0;endArrow=classic;" parent="78cTH-3rYRoWqbKTk_js-3" source="TC_qHAJ1gJQiUCRcLyHj-360" target="TC_qHAJ1gJQiUCRcLyHj-368" edge="1">
          <mxGeometry relative="1" as="geometry" />
        </mxCell>
        <mxCell id="TC_qHAJ1gJQiUCRcLyHj-360" value="&lt;font style=&quot;font-size: 16px;&quot;&gt;&lt;b&gt;Campo Magnético&lt;/b&gt;&lt;/font&gt;" style="rounded=1;whiteSpace=wrap;html=1;" parent="78cTH-3rYRoWqbKTk_js-3" vertex="1">
          <mxGeometry x="1200" y="1455" width="120" height="60" as="geometry" />
        </mxCell>
        <mxCell id="TC_qHAJ1gJQiUCRcLyHj-361" value="funciona por" style="edgeStyle=orthogonalEdgeStyle;curved=1;rounded=0;orthogonalLoop=1;jettySize=auto;html=1;exitX=0;exitY=0.5;exitDx=0;exitDy=0;entryX=1;entryY=0.5;entryDx=0;entryDy=0;strokeColor=default;align=center;verticalAlign=middle;fontFamily=Helvetica;fontSize=11;fontColor=default;labelBackgroundColor=default;resizable=0;endArrow=classic;" parent="78cTH-3rYRoWqbKTk_js-3" source="TC_qHAJ1gJQiUCRcLyHj-363" target="TC_qHAJ1gJQiUCRcLyHj-364" edge="1">
          <mxGeometry x="0.1053" y="-5" relative="1" as="geometry">
            <mxPoint as="offset" />
          </mxGeometry>
        </mxCell>
        <mxCell id="TC_qHAJ1gJQiUCRcLyHj-362" value="Utilizado em" style="edgeStyle=orthogonalEdgeStyle;curved=1;rounded=0;orthogonalLoop=1;jettySize=auto;html=1;exitX=0;exitY=0.5;exitDx=0;exitDy=0;entryX=1;entryY=0.5;entryDx=0;entryDy=0;strokeColor=default;align=center;verticalAlign=middle;fontFamily=Helvetica;fontSize=11;fontColor=default;labelBackgroundColor=default;resizable=0;endArrow=classic;" parent="78cTH-3rYRoWqbKTk_js-3" source="TC_qHAJ1gJQiUCRcLyHj-363" target="TC_qHAJ1gJQiUCRcLyHj-365" edge="1">
          <mxGeometry relative="1" as="geometry" />
        </mxCell>
        <mxCell id="TC_qHAJ1gJQiUCRcLyHj-363" value="&lt;font style=&quot;font-size: 16px;&quot;&gt;&lt;b&gt;Sensor Magneto Resistivo&lt;/b&gt;&lt;/font&gt;" style="rounded=1;whiteSpace=wrap;html=1;" parent="78cTH-3rYRoWqbKTk_js-3" vertex="1">
          <mxGeometry x="960" y="1375" width="190" height="60" as="geometry" />
        </mxCell>
        <mxCell id="TC_qHAJ1gJQiUCRcLyHj-364" value="&lt;font style=&quot;font-size: 14px;&quot;&gt;Um elemento ferromagnético (sonda, com fio magnetostritivo) detecta a posição de um magneto capaz de se locomover ao longo de sua extensão&lt;/font&gt;" style="rounded=1;whiteSpace=wrap;html=1;" parent="78cTH-3rYRoWqbKTk_js-3" vertex="1">
          <mxGeometry x="440" y="1335" width="340" height="60" as="geometry" />
        </mxCell>
        <mxCell id="TC_qHAJ1gJQiUCRcLyHj-365" value="Monitoramento da abertura do&lt;br/&gt;distribuidor de uma usina." style="rounded=1;whiteSpace=wrap;html=1;" parent="78cTH-3rYRoWqbKTk_js-3" vertex="1">
          <mxGeometry x="600" y="1445" width="180" height="40" as="geometry" />
        </mxCell>
        <mxCell id="TC_qHAJ1gJQiUCRcLyHj-366" value="funciona por" style="edgeStyle=orthogonalEdgeStyle;curved=1;rounded=0;orthogonalLoop=1;jettySize=auto;html=1;exitX=0;exitY=0.5;exitDx=0;exitDy=0;entryX=1;entryY=0.5;entryDx=0;entryDy=0;strokeColor=default;align=center;verticalAlign=middle;fontFamily=Helvetica;fontSize=11;fontColor=default;labelBackgroundColor=default;resizable=0;endArrow=classic;" parent="78cTH-3rYRoWqbKTk_js-3" source="TC_qHAJ1gJQiUCRcLyHj-368" target="TC_qHAJ1gJQiUCRcLyHj-369" edge="1">
          <mxGeometry x="0.1053" y="-5" relative="1" as="geometry">
            <mxPoint as="offset" />
          </mxGeometry>
        </mxCell>
        <mxCell id="TC_qHAJ1gJQiUCRcLyHj-367" value="Utilizado em" style="edgeStyle=orthogonalEdgeStyle;curved=1;rounded=0;orthogonalLoop=1;jettySize=auto;html=1;exitX=0;exitY=0.5;exitDx=0;exitDy=0;entryX=1;entryY=0.5;entryDx=0;entryDy=0;strokeColor=default;align=center;verticalAlign=middle;fontFamily=Helvetica;fontSize=11;fontColor=default;labelBackgroundColor=default;resizable=0;endArrow=classic;" parent="78cTH-3rYRoWqbKTk_js-3" source="TC_qHAJ1gJQiUCRcLyHj-368" target="TC_qHAJ1gJQiUCRcLyHj-370" edge="1">
          <mxGeometry relative="1" as="geometry" />
        </mxCell>
        <mxCell id="TC_qHAJ1gJQiUCRcLyHj-368" value="&lt;font style=&quot;font-size: 16px;&quot;&gt;&lt;b&gt;Sensor de Efeito Hall&lt;/b&gt;&lt;/font&gt;" style="rounded=1;whiteSpace=wrap;html=1;" parent="78cTH-3rYRoWqbKTk_js-3" vertex="1">
          <mxGeometry x="1000" y="1565" width="150" height="60" as="geometry" />
        </mxCell>
        <mxCell id="TC_qHAJ1gJQiUCRcLyHj-369" value="&lt;font style=&quot;font-size: 14px;&quot;&gt;Sobre um condutor conduzindo corrente, sujeito a um campo magnético perpendicular, a trajetória das cargas elétricas é modificada pelo efeito da força de Lorentz, e leva à tensão de Hall.&lt;br&gt;&lt;/font&gt;" style="rounded=1;whiteSpace=wrap;html=1;" parent="78cTH-3rYRoWqbKTk_js-3" vertex="1">
          <mxGeometry x="430" y="1525" width="420" height="60" as="geometry" />
        </mxCell>
        <mxCell id="TC_qHAJ1gJQiUCRcLyHj-370" value="Motor brushless" style="rounded=1;whiteSpace=wrap;html=1;" parent="78cTH-3rYRoWqbKTk_js-3" vertex="1">
          <mxGeometry x="760" y="1640" width="90" height="40" as="geometry" />
        </mxCell>
        <mxCell id="TC_qHAJ1gJQiUCRcLyHj-371" value="&lt;font style=&quot;font-size: 14px;&quot;&gt;Utilizando&amp;nbsp;&lt;/font&gt;" style="edgeStyle=orthogonalEdgeStyle;curved=1;rounded=0;orthogonalLoop=1;jettySize=auto;html=1;exitX=0;exitY=0.5;exitDx=0;exitDy=0;entryX=1;entryY=0.5;entryDx=0;entryDy=0;strokeColor=default;align=center;verticalAlign=middle;fontFamily=Helvetica;fontSize=11;fontColor=default;labelBackgroundColor=default;resizable=0;endArrow=classic;" parent="78cTH-3rYRoWqbKTk_js-3" source="TC_qHAJ1gJQiUCRcLyHj-373" target="TC_qHAJ1gJQiUCRcLyHj-376" edge="1">
          <mxGeometry x="-0.6154" y="15" relative="1" as="geometry">
            <mxPoint as="offset" />
          </mxGeometry>
        </mxCell>
        <mxCell id="TC_qHAJ1gJQiUCRcLyHj-372" style="edgeStyle=orthogonalEdgeStyle;curved=1;rounded=0;orthogonalLoop=1;jettySize=auto;html=1;exitX=0;exitY=0.5;exitDx=0;exitDy=0;entryX=1;entryY=0.5;entryDx=0;entryDy=0;strokeColor=default;align=center;verticalAlign=middle;fontFamily=Helvetica;fontSize=11;fontColor=default;labelBackgroundColor=default;resizable=0;endArrow=classic;" parent="78cTH-3rYRoWqbKTk_js-3" source="TC_qHAJ1gJQiUCRcLyHj-373" target="TC_qHAJ1gJQiUCRcLyHj-381" edge="1">
          <mxGeometry relative="1" as="geometry" />
        </mxCell>
        <mxCell id="TC_qHAJ1gJQiUCRcLyHj-373" value="&lt;font style=&quot;font-size: 16px;&quot;&gt;&lt;b&gt;Ótica&lt;/b&gt;&lt;/font&gt;" style="rounded=1;whiteSpace=wrap;html=1;" parent="78cTH-3rYRoWqbKTk_js-3" vertex="1">
          <mxGeometry x="1200" y="1825" width="120" height="60" as="geometry" />
        </mxCell>
        <mxCell id="TC_qHAJ1gJQiUCRcLyHj-374" value="funciona por" style="edgeStyle=orthogonalEdgeStyle;curved=1;rounded=0;orthogonalLoop=1;jettySize=auto;html=1;exitX=0;exitY=0.5;exitDx=0;exitDy=0;entryX=1;entryY=0.5;entryDx=0;entryDy=0;strokeColor=default;align=center;verticalAlign=middle;fontFamily=Helvetica;fontSize=11;fontColor=default;labelBackgroundColor=default;resizable=0;endArrow=classic;" parent="78cTH-3rYRoWqbKTk_js-3" source="TC_qHAJ1gJQiUCRcLyHj-376" target="TC_qHAJ1gJQiUCRcLyHj-377" edge="1">
          <mxGeometry x="0.1053" y="-5" relative="1" as="geometry">
            <mxPoint as="offset" />
          </mxGeometry>
        </mxCell>
        <mxCell id="TC_qHAJ1gJQiUCRcLyHj-375" value="Utilizado em" style="edgeStyle=orthogonalEdgeStyle;curved=1;rounded=0;orthogonalLoop=1;jettySize=auto;html=1;exitX=0;exitY=0.5;exitDx=0;exitDy=0;entryX=1;entryY=0.5;entryDx=0;entryDy=0;strokeColor=default;align=center;verticalAlign=middle;fontFamily=Helvetica;fontSize=11;fontColor=default;labelBackgroundColor=default;resizable=0;endArrow=classic;" parent="78cTH-3rYRoWqbKTk_js-3" source="TC_qHAJ1gJQiUCRcLyHj-376" target="TC_qHAJ1gJQiUCRcLyHj-378" edge="1">
          <mxGeometry relative="1" as="geometry" />
        </mxCell>
        <mxCell id="TC_qHAJ1gJQiUCRcLyHj-376" value="&lt;font style=&quot;font-size: 16px;&quot;&gt;&lt;b&gt;Encoder Incremental&lt;/b&gt;&lt;/font&gt;" style="rounded=1;whiteSpace=wrap;html=1;" parent="78cTH-3rYRoWqbKTk_js-3" vertex="1">
          <mxGeometry x="970" y="1745" width="180" height="60" as="geometry" />
        </mxCell>
        <mxCell id="TC_qHAJ1gJQiUCRcLyHj-377" value="&lt;font style=&quot;font-size: 14px;&quot;&gt;Um disco dividido em setores alternadamente transparentes e opacos. Uma fonte de luz e um sensor óptico são posicionados entre o disco que, ao girar, permite ou não a passagem de luz, fornecendo uma saída digital.&lt;br&gt;&lt;/font&gt;" style="rounded=1;whiteSpace=wrap;html=1;" parent="78cTH-3rYRoWqbKTk_js-3" vertex="1">
          <mxGeometry x="310" y="1705" width="470" height="60" as="geometry" />
        </mxCell>
        <mxCell id="TC_qHAJ1gJQiUCRcLyHj-378" value="aplicações com feedback do posicionamento e da velocidade do motor.&amp;nbsp;" style="rounded=1;whiteSpace=wrap;html=1;" parent="78cTH-3rYRoWqbKTk_js-3" vertex="1">
          <mxGeometry x="540" y="1815" width="240" height="40" as="geometry" />
        </mxCell>
        <mxCell id="TC_qHAJ1gJQiUCRcLyHj-379" value="funciona por" style="edgeStyle=orthogonalEdgeStyle;curved=1;rounded=0;orthogonalLoop=1;jettySize=auto;html=1;exitX=0;exitY=0.5;exitDx=0;exitDy=0;entryX=1;entryY=0.5;entryDx=0;entryDy=0;strokeColor=default;align=center;verticalAlign=middle;fontFamily=Helvetica;fontSize=11;fontColor=default;labelBackgroundColor=default;resizable=0;endArrow=classic;" parent="78cTH-3rYRoWqbKTk_js-3" source="TC_qHAJ1gJQiUCRcLyHj-381" target="TC_qHAJ1gJQiUCRcLyHj-382" edge="1">
          <mxGeometry x="0.1053" y="-5" relative="1" as="geometry">
            <mxPoint as="offset" />
          </mxGeometry>
        </mxCell>
        <mxCell id="TC_qHAJ1gJQiUCRcLyHj-380" value="Utilizado em" style="edgeStyle=orthogonalEdgeStyle;curved=1;rounded=0;orthogonalLoop=1;jettySize=auto;html=1;exitX=0;exitY=0.5;exitDx=0;exitDy=0;entryX=1;entryY=0.5;entryDx=0;entryDy=0;strokeColor=default;align=center;verticalAlign=middle;fontFamily=Helvetica;fontSize=11;fontColor=default;labelBackgroundColor=default;resizable=0;endArrow=classic;" parent="78cTH-3rYRoWqbKTk_js-3" source="TC_qHAJ1gJQiUCRcLyHj-381" target="TC_qHAJ1gJQiUCRcLyHj-383" edge="1">
          <mxGeometry relative="1" as="geometry" />
        </mxCell>
        <mxCell id="TC_qHAJ1gJQiUCRcLyHj-381" value="&lt;font style=&quot;font-size: 16px;&quot;&gt;&lt;b&gt;Encoder Absoluto&lt;/b&gt;&lt;/font&gt;" style="rounded=1;whiteSpace=wrap;html=1;" parent="78cTH-3rYRoWqbKTk_js-3" vertex="1">
          <mxGeometry x="1000" y="1935" width="150" height="60" as="geometry" />
        </mxCell>
        <mxCell id="TC_qHAJ1gJQiUCRcLyHj-382" value="&lt;font style=&quot;font-size: 14px;&quot;&gt;Baseado em um dispositivo de memória, o zero é a primeira posição. A posição do encoder absoluto é determinada pela leitura de um código e este é único para cada posição do seu curso.&lt;br&gt;&lt;/font&gt;" style="rounded=1;whiteSpace=wrap;html=1;" parent="78cTH-3rYRoWqbKTk_js-3" vertex="1">
          <mxGeometry x="430" y="1895" width="420" height="60" as="geometry" />
        </mxCell>
        <mxCell id="TC_qHAJ1gJQiUCRcLyHj-383" value="Controle de posição, encoder possibilita que a máquina ou ferramenta não exceda a posição ou direção de trabalho." style="rounded=1;whiteSpace=wrap;html=1;" parent="78cTH-3rYRoWqbKTk_js-3" vertex="1">
          <mxGeometry x="530" y="2010" width="320" height="40" as="geometry" />
        </mxCell>
        <mxCell id="TC_qHAJ1gJQiUCRcLyHj-388" value="&lt;font style=&quot;font-size: 16px;&quot;&gt;Medido por&lt;/font&gt;" style="text;html=1;align=center;verticalAlign=middle;resizable=0;points=[];autosize=1;strokeColor=none;fillColor=none;fontFamily=Helvetica;fontSize=11;fontColor=default;labelBackgroundColor=default;" parent="78cTH-3rYRoWqbKTk_js-3" vertex="1">
          <mxGeometry x="1530" y="770" width="100" height="30" as="geometry" />
        </mxCell>
        <mxCell id="TC_qHAJ1gJQiUCRcLyHj-429" style="edgeStyle=orthogonalEdgeStyle;curved=1;rounded=0;orthogonalLoop=1;jettySize=auto;html=1;exitX=0;exitY=0.5;exitDx=0;exitDy=0;entryX=1;entryY=0.5;entryDx=0;entryDy=0;strokeColor=default;align=center;verticalAlign=middle;fontFamily=Helvetica;fontSize=11;fontColor=default;labelBackgroundColor=default;resizable=0;endArrow=classic;" parent="78cTH-3rYRoWqbKTk_js-3" source="TC_qHAJ1gJQiUCRcLyHj-401" target="TC_qHAJ1gJQiUCRcLyHj-404" edge="1">
          <mxGeometry relative="1" as="geometry" />
        </mxCell>
        <mxCell id="TC_qHAJ1gJQiUCRcLyHj-468" style="edgeStyle=orthogonalEdgeStyle;curved=1;rounded=0;orthogonalLoop=1;jettySize=auto;html=1;exitX=0;exitY=0.5;exitDx=0;exitDy=0;entryX=1;entryY=0.5;entryDx=0;entryDy=0;strokeColor=default;align=center;verticalAlign=middle;fontFamily=Helvetica;fontSize=11;fontColor=default;labelBackgroundColor=default;resizable=0;endArrow=classic;" parent="78cTH-3rYRoWqbKTk_js-3" source="TC_qHAJ1gJQiUCRcLyHj-401" target="TC_qHAJ1gJQiUCRcLyHj-433" edge="1">
          <mxGeometry relative="1" as="geometry" />
        </mxCell>
        <mxCell id="TC_qHAJ1gJQiUCRcLyHj-401" value="&lt;font style=&quot;font-size: 16px;&quot;&gt;&lt;b&gt;De&amp;nbsp;&lt;/b&gt;&lt;/font&gt;&lt;div&gt;&lt;font style=&quot;font-size: 16px;&quot;&gt;&lt;b&gt;Velocidade&lt;/b&gt;&lt;/font&gt;&lt;/div&gt;" style="rounded=1;whiteSpace=wrap;html=1;" parent="78cTH-3rYRoWqbKTk_js-3" vertex="1">
          <mxGeometry x="1620" y="2460" width="120" height="60" as="geometry" />
        </mxCell>
        <mxCell id="TC_qHAJ1gJQiUCRcLyHj-402" value="" style="edgeStyle=orthogonalEdgeStyle;curved=1;rounded=0;orthogonalLoop=1;jettySize=auto;html=1;exitX=0;exitY=0.5;exitDx=0;exitDy=0;entryX=1;entryY=0.5;entryDx=0;entryDy=0;strokeColor=default;align=center;verticalAlign=middle;fontFamily=Helvetica;fontSize=11;fontColor=default;labelBackgroundColor=default;resizable=0;endArrow=classic;" parent="78cTH-3rYRoWqbKTk_js-3" source="TC_qHAJ1gJQiUCRcLyHj-404" target="TC_qHAJ1gJQiUCRcLyHj-407" edge="1">
          <mxGeometry x="-0.3636" y="10" relative="1" as="geometry">
            <mxPoint as="offset" />
          </mxGeometry>
        </mxCell>
        <mxCell id="TC_qHAJ1gJQiUCRcLyHj-403" style="edgeStyle=orthogonalEdgeStyle;curved=1;rounded=0;orthogonalLoop=1;jettySize=auto;html=1;exitX=0;exitY=0.5;exitDx=0;exitDy=0;entryX=1;entryY=0.5;entryDx=0;entryDy=0;strokeColor=default;align=center;verticalAlign=middle;fontFamily=Helvetica;fontSize=11;fontColor=default;labelBackgroundColor=default;resizable=0;endArrow=classic;" parent="78cTH-3rYRoWqbKTk_js-3" source="TC_qHAJ1gJQiUCRcLyHj-404" target="TC_qHAJ1gJQiUCRcLyHj-412" edge="1">
          <mxGeometry relative="1" as="geometry" />
        </mxCell>
        <mxCell id="TC_qHAJ1gJQiUCRcLyHj-404" value="&lt;font style=&quot;font-size: 16px;&quot;&gt;&lt;b&gt;Linear/&lt;/b&gt;&lt;/font&gt;&lt;div&gt;&lt;font style=&quot;font-size: 16px;&quot;&gt;&lt;b&gt;Translacional&lt;/b&gt;&lt;/font&gt;&lt;/div&gt;" style="rounded=1;whiteSpace=wrap;html=1;" parent="78cTH-3rYRoWqbKTk_js-3" vertex="1">
          <mxGeometry x="1320" y="2252.5" width="120" height="60" as="geometry" />
        </mxCell>
        <mxCell id="TC_qHAJ1gJQiUCRcLyHj-405" value="funciona por" style="edgeStyle=orthogonalEdgeStyle;curved=1;rounded=0;orthogonalLoop=1;jettySize=auto;html=1;exitX=0;exitY=0.5;exitDx=0;exitDy=0;entryX=1;entryY=0.5;entryDx=0;entryDy=0;strokeColor=default;align=center;verticalAlign=middle;fontFamily=Helvetica;fontSize=11;fontColor=default;labelBackgroundColor=default;resizable=0;endArrow=classic;" parent="78cTH-3rYRoWqbKTk_js-3" source="TC_qHAJ1gJQiUCRcLyHj-407" target="TC_qHAJ1gJQiUCRcLyHj-408" edge="1">
          <mxGeometry x="0.1053" y="-5" relative="1" as="geometry">
            <mxPoint as="offset" />
          </mxGeometry>
        </mxCell>
        <mxCell id="TC_qHAJ1gJQiUCRcLyHj-406" value="&lt;font style=&quot;font-size: 14px;&quot;&gt;Utilizado em&lt;/font&gt;" style="edgeStyle=orthogonalEdgeStyle;curved=1;rounded=0;orthogonalLoop=1;jettySize=auto;html=1;exitX=0;exitY=1;exitDx=0;exitDy=0;entryX=1;entryY=0.5;entryDx=0;entryDy=0;strokeColor=default;align=center;verticalAlign=middle;fontFamily=Helvetica;fontSize=11;fontColor=default;labelBackgroundColor=default;resizable=0;endArrow=classic;" parent="78cTH-3rYRoWqbKTk_js-3" source="TC_qHAJ1gJQiUCRcLyHj-404" target="TC_qHAJ1gJQiUCRcLyHj-409" edge="1">
          <mxGeometry x="-0.1573" y="-20" relative="1" as="geometry">
            <Array as="points">
              <mxPoint x="1320" y="2350" />
            </Array>
            <mxPoint as="offset" />
          </mxGeometry>
        </mxCell>
        <mxCell id="TC_qHAJ1gJQiUCRcLyHj-407" value="&lt;font style=&quot;font-size: 16px;&quot;&gt;&lt;b&gt;Medição Direta&lt;/b&gt;&lt;/font&gt;" style="rounded=1;whiteSpace=wrap;html=1;" parent="78cTH-3rYRoWqbKTk_js-3" vertex="1">
          <mxGeometry x="1030" y="2172.5" width="150" height="60" as="geometry" />
        </mxCell>
        <mxCell id="TC_qHAJ1gJQiUCRcLyHj-408" value="&lt;font style=&quot;font-size: 14px;&quot;&gt;Medição Δx&amp;nbsp;e Δt com um dispositivo que é instalado em dois pontos para gerar um pulso quando um objeto passa por eles&lt;/font&gt;" style="rounded=1;whiteSpace=wrap;html=1;" parent="78cTH-3rYRoWqbKTk_js-3" vertex="1">
          <mxGeometry x="660" y="2172.5" width="290" height="60" as="geometry" />
        </mxCell>
        <mxCell id="TC_qHAJ1gJQiUCRcLyHj-409" value="&amp;nbsp;medição de velocidade nas ruas das cidades." style="rounded=1;whiteSpace=wrap;html=1;" parent="78cTH-3rYRoWqbKTk_js-3" vertex="1">
          <mxGeometry x="740" y="2330" width="250" height="40" as="geometry" />
        </mxCell>
        <mxCell id="TC_qHAJ1gJQiUCRcLyHj-410" value="funciona por" style="edgeStyle=orthogonalEdgeStyle;curved=1;rounded=0;orthogonalLoop=1;jettySize=auto;html=1;exitX=0;exitY=0.5;exitDx=0;exitDy=0;entryX=1;entryY=0.5;entryDx=0;entryDy=0;strokeColor=default;align=center;verticalAlign=middle;fontFamily=Helvetica;fontSize=11;fontColor=default;labelBackgroundColor=default;resizable=0;endArrow=classic;" parent="78cTH-3rYRoWqbKTk_js-3" source="TC_qHAJ1gJQiUCRcLyHj-412" target="TC_qHAJ1gJQiUCRcLyHj-413" edge="1">
          <mxGeometry y="-2" relative="1" as="geometry">
            <mxPoint as="offset" />
          </mxGeometry>
        </mxCell>
        <mxCell id="TC_qHAJ1gJQiUCRcLyHj-412" value="&lt;font style=&quot;font-size: 16px;&quot;&gt;&lt;b&gt;Medição Indireta&lt;/b&gt;&lt;/font&gt;" style="rounded=1;whiteSpace=wrap;html=1;" parent="78cTH-3rYRoWqbKTk_js-3" vertex="1">
          <mxGeometry x="1030" y="2252.5" width="150" height="60" as="geometry" />
        </mxCell>
        <mxCell id="TC_qHAJ1gJQiUCRcLyHj-413" value="&lt;font style=&quot;font-size: 14px;&quot;&gt;Integração da aceleração&lt;/font&gt;" style="rounded=1;whiteSpace=wrap;html=1;" parent="78cTH-3rYRoWqbKTk_js-3" vertex="1">
          <mxGeometry x="780" y="2252.5" width="170" height="60" as="geometry" />
        </mxCell>
        <mxCell id="TC_qHAJ1gJQiUCRcLyHj-428" value="&lt;font style=&quot;font-size: 14px;&quot;&gt;Utilizando&lt;/font&gt;" style="text;html=1;align=center;verticalAlign=middle;resizable=0;points=[];autosize=1;strokeColor=none;fillColor=none;fontFamily=Helvetica;fontSize=11;fontColor=default;labelBackgroundColor=default;" parent="78cTH-3rYRoWqbKTk_js-3" vertex="1">
          <mxGeometry x="1200" y="2260" width="80" height="30" as="geometry" />
        </mxCell>
        <mxCell id="TC_qHAJ1gJQiUCRcLyHj-431" value="" style="edgeStyle=orthogonalEdgeStyle;curved=1;rounded=0;orthogonalLoop=1;jettySize=auto;html=1;exitX=0;exitY=0.5;exitDx=0;exitDy=0;entryX=1;entryY=0.5;entryDx=0;entryDy=0;strokeColor=default;align=center;verticalAlign=middle;fontFamily=Helvetica;fontSize=11;fontColor=default;labelBackgroundColor=default;resizable=0;endArrow=classic;" parent="78cTH-3rYRoWqbKTk_js-3" source="TC_qHAJ1gJQiUCRcLyHj-433" target="TC_qHAJ1gJQiUCRcLyHj-436" edge="1">
          <mxGeometry x="-0.3636" y="10" relative="1" as="geometry">
            <mxPoint as="offset" />
            <Array as="points">
              <mxPoint x="1330" y="2470" />
              <mxPoint x="1240" y="2470" />
              <mxPoint x="1240" y="2430" />
            </Array>
          </mxGeometry>
        </mxCell>
        <mxCell id="TC_qHAJ1gJQiUCRcLyHj-466" style="edgeStyle=orthogonalEdgeStyle;curved=1;rounded=0;orthogonalLoop=1;jettySize=auto;html=1;exitX=0;exitY=0.5;exitDx=0;exitDy=0;entryX=1;entryY=0.5;entryDx=0;entryDy=0;strokeColor=default;align=center;verticalAlign=middle;fontFamily=Helvetica;fontSize=11;fontColor=default;labelBackgroundColor=default;resizable=0;endArrow=classic;" parent="78cTH-3rYRoWqbKTk_js-3" source="TC_qHAJ1gJQiUCRcLyHj-433" target="TC_qHAJ1gJQiUCRcLyHj-450" edge="1">
          <mxGeometry relative="1" as="geometry">
            <Array as="points">
              <mxPoint x="1330" y="2470" />
              <mxPoint x="1240" y="2470" />
              <mxPoint x="1240" y="2510" />
            </Array>
          </mxGeometry>
        </mxCell>
        <mxCell id="TC_qHAJ1gJQiUCRcLyHj-433" value="&lt;span style=&quot;font-size: 16px;&quot;&gt;&lt;b&gt;Angular/&lt;/b&gt;&lt;/span&gt;&lt;div&gt;&lt;span style=&quot;font-size: 16px;&quot;&gt;&lt;b&gt;Rotacional&lt;/b&gt;&lt;/span&gt;&lt;/div&gt;" style="rounded=1;whiteSpace=wrap;html=1;" parent="78cTH-3rYRoWqbKTk_js-3" vertex="1">
          <mxGeometry x="1330" y="2460" width="120" height="60" as="geometry" />
        </mxCell>
        <mxCell id="TC_qHAJ1gJQiUCRcLyHj-434" value="funciona por" style="edgeStyle=orthogonalEdgeStyle;curved=1;rounded=0;orthogonalLoop=1;jettySize=auto;html=1;exitX=0;exitY=0.5;exitDx=0;exitDy=0;entryX=1;entryY=0.5;entryDx=0;entryDy=0;strokeColor=default;align=center;verticalAlign=middle;fontFamily=Helvetica;fontSize=11;fontColor=default;labelBackgroundColor=default;resizable=0;endArrow=classic;" parent="78cTH-3rYRoWqbKTk_js-3" source="TC_qHAJ1gJQiUCRcLyHj-436" target="TC_qHAJ1gJQiUCRcLyHj-437" edge="1">
          <mxGeometry x="0.1053" y="-5" relative="1" as="geometry">
            <mxPoint as="offset" />
          </mxGeometry>
        </mxCell>
        <mxCell id="TC_qHAJ1gJQiUCRcLyHj-435" value="&lt;font style=&quot;font-size: 14px;&quot;&gt;Utilizado em&lt;/font&gt;" style="edgeStyle=orthogonalEdgeStyle;curved=1;rounded=0;orthogonalLoop=1;jettySize=auto;html=1;exitX=0;exitY=0.75;exitDx=0;exitDy=0;entryX=1;entryY=0.5;entryDx=0;entryDy=0;strokeColor=default;align=center;verticalAlign=middle;fontFamily=Helvetica;fontSize=11;fontColor=default;labelBackgroundColor=default;resizable=0;endArrow=classic;" parent="78cTH-3rYRoWqbKTk_js-3" source="TC_qHAJ1gJQiUCRcLyHj-433" target="TC_qHAJ1gJQiUCRcLyHj-438" edge="1">
          <mxGeometry x="-0.1573" y="-20" relative="1" as="geometry">
            <Array as="points">
              <mxPoint x="1310" y="2505" />
              <mxPoint x="1310" y="2570" />
            </Array>
            <mxPoint as="offset" />
          </mxGeometry>
        </mxCell>
        <mxCell id="TC_qHAJ1gJQiUCRcLyHj-436" value="&lt;font style=&quot;font-size: 16px;&quot;&gt;&lt;b&gt;Tacômetro Analógico&lt;/b&gt;&lt;/font&gt;" style="rounded=1;whiteSpace=wrap;html=1;" parent="78cTH-3rYRoWqbKTk_js-3" vertex="1">
          <mxGeometry x="1020" y="2400" width="150" height="60" as="geometry" />
        </mxCell>
        <mxCell id="TC_qHAJ1gJQiUCRcLyHj-437" value="&lt;font style=&quot;font-size: 14px;&quot;&gt;Produz uma saída de tensão&lt;br/&gt;proporcional à velocidade de rotação de um eixo girante:&lt;/font&gt;" style="rounded=1;whiteSpace=wrap;html=1;" parent="78cTH-3rYRoWqbKTk_js-3" vertex="1">
          <mxGeometry x="600" y="2400" width="290" height="60" as="geometry" />
        </mxCell>
        <mxCell id="TC_qHAJ1gJQiUCRcLyHj-438" value=" RPM de um motor" style="rounded=1;whiteSpace=wrap;html=1;" parent="78cTH-3rYRoWqbKTk_js-3" vertex="1">
          <mxGeometry x="985" y="2550" width="100" height="40" as="geometry" />
        </mxCell>
        <mxCell id="TC_qHAJ1gJQiUCRcLyHj-463" value="Faz a Conta" style="edgeStyle=orthogonalEdgeStyle;curved=1;rounded=0;orthogonalLoop=1;jettySize=auto;html=1;exitX=0;exitY=0.75;exitDx=0;exitDy=0;strokeColor=default;align=center;verticalAlign=middle;fontFamily=Helvetica;fontSize=11;fontColor=default;labelBackgroundColor=default;resizable=0;endArrow=classic;entryX=1;entryY=0.5;entryDx=0;entryDy=0;" parent="78cTH-3rYRoWqbKTk_js-3" source="TC_qHAJ1gJQiUCRcLyHj-450" target="TC_qHAJ1gJQiUCRcLyHj-465" edge="1">
          <mxGeometry x="-0.4073" relative="1" as="geometry">
            <mxPoint x="890" y="2540" as="targetPoint" />
            <mxPoint as="offset" />
          </mxGeometry>
        </mxCell>
        <mxCell id="TC_qHAJ1gJQiUCRcLyHj-450" value="&lt;font style=&quot;font-size: 16px;&quot;&gt;&lt;b&gt;Tacômetro Digital&lt;/b&gt;&lt;/font&gt;" style="rounded=1;whiteSpace=wrap;html=1;" parent="78cTH-3rYRoWqbKTk_js-3" vertex="1">
          <mxGeometry x="1020" y="2480" width="150" height="60" as="geometry" />
        </mxCell>
        <mxCell id="TC_qHAJ1gJQiUCRcLyHj-456" value="" style="endArrow=classic;html=1;rounded=0;strokeColor=default;align=center;verticalAlign=middle;fontFamily=Helvetica;fontSize=11;fontColor=default;labelBackgroundColor=default;resizable=0;edgeStyle=orthogonalEdgeStyle;curved=1;exitX=0;exitY=0.5;exitDx=0;exitDy=0;" parent="78cTH-3rYRoWqbKTk_js-3" source="TC_qHAJ1gJQiUCRcLyHj-450" edge="1">
          <mxGeometry relative="1" as="geometry">
            <mxPoint x="970" y="2460" as="sourcePoint" />
            <mxPoint x="890" y="2480" as="targetPoint" />
            <Array as="points">
              <mxPoint x="950" y="2510" />
              <mxPoint x="950" y="2480" />
            </Array>
          </mxGeometry>
        </mxCell>
        <mxCell id="TC_qHAJ1gJQiUCRcLyHj-457" value="Sensor Óptico" style="edgeLabel;resizable=0;html=1;;align=center;verticalAlign=middle;fontFamily=Helvetica;fontSize=11;fontColor=default;labelBackgroundColor=default;fillColor=none;gradientColor=none;" parent="TC_qHAJ1gJQiUCRcLyHj-456" connectable="0" vertex="1">
          <mxGeometry relative="1" as="geometry">
            <mxPoint x="-100" y="-20" as="offset" />
          </mxGeometry>
        </mxCell>
        <mxCell id="TC_qHAJ1gJQiUCRcLyHj-458" value="" style="endArrow=classic;html=1;rounded=0;strokeColor=default;align=center;verticalAlign=middle;fontFamily=Helvetica;fontSize=11;fontColor=default;labelBackgroundColor=default;resizable=0;edgeStyle=orthogonalEdgeStyle;curved=1;exitX=0;exitY=0.5;exitDx=0;exitDy=0;" parent="78cTH-3rYRoWqbKTk_js-3" source="TC_qHAJ1gJQiUCRcLyHj-450" edge="1">
          <mxGeometry relative="1" as="geometry">
            <mxPoint x="1010" y="2530" as="sourcePoint" />
            <mxPoint x="890" y="2490" as="targetPoint" />
            <Array as="points">
              <mxPoint x="950" y="2510" />
              <mxPoint x="950" y="2490" />
            </Array>
          </mxGeometry>
        </mxCell>
        <mxCell id="TC_qHAJ1gJQiUCRcLyHj-459" value="Sensor Indutivo" style="edgeLabel;resizable=0;html=1;;align=center;verticalAlign=middle;fontFamily=Helvetica;fontSize=11;fontColor=default;labelBackgroundColor=default;fillColor=none;gradientColor=none;" parent="TC_qHAJ1gJQiUCRcLyHj-458" connectable="0" vertex="1">
          <mxGeometry relative="1" as="geometry">
            <mxPoint x="-100" y="-15" as="offset" />
          </mxGeometry>
        </mxCell>
        <mxCell id="TC_qHAJ1gJQiUCRcLyHj-460" value="" style="endArrow=classic;html=1;rounded=0;strokeColor=default;align=center;verticalAlign=middle;fontFamily=Helvetica;fontSize=11;fontColor=default;labelBackgroundColor=default;resizable=0;edgeStyle=orthogonalEdgeStyle;curved=1;exitX=0;exitY=0.5;exitDx=0;exitDy=0;" parent="78cTH-3rYRoWqbKTk_js-3" source="TC_qHAJ1gJQiUCRcLyHj-450" edge="1">
          <mxGeometry relative="1" as="geometry">
            <mxPoint x="1030" y="2520" as="sourcePoint" />
            <mxPoint x="890" y="2500" as="targetPoint" />
            <Array as="points">
              <mxPoint x="950" y="2510" />
              <mxPoint x="950" y="2500" />
            </Array>
          </mxGeometry>
        </mxCell>
        <mxCell id="TC_qHAJ1gJQiUCRcLyHj-461" value="Sensor Efeito Hall" style="edgeLabel;resizable=0;html=1;;align=center;verticalAlign=middle;fontFamily=Helvetica;fontSize=11;fontColor=default;labelBackgroundColor=default;fillColor=none;gradientColor=none;" parent="TC_qHAJ1gJQiUCRcLyHj-460" connectable="0" vertex="1">
          <mxGeometry relative="1" as="geometry">
            <mxPoint x="-110" y="-10" as="offset" />
          </mxGeometry>
        </mxCell>
        <mxCell id="TC_qHAJ1gJQiUCRcLyHj-462" value="Contém" style="text;html=1;align=center;verticalAlign=middle;resizable=0;points=[];autosize=1;strokeColor=none;fillColor=none;fontFamily=Helvetica;fontSize=11;fontColor=default;labelBackgroundColor=default;" parent="78cTH-3rYRoWqbKTk_js-3" vertex="1">
          <mxGeometry x="960" y="2490" width="60" height="30" as="geometry" />
        </mxCell>
        <mxCell id="TC_qHAJ1gJQiUCRcLyHj-465" value="W = Nc/To * 1/m" style="rounded=1;whiteSpace=wrap;html=1;" parent="78cTH-3rYRoWqbKTk_js-3" vertex="1">
          <mxGeometry x="800" y="2520" width="90" height="20" as="geometry" />
        </mxCell>
        <mxCell id="TC_qHAJ1gJQiUCRcLyHj-467" value="Utilizando" style="text;html=1;align=center;verticalAlign=middle;resizable=0;points=[];autosize=1;strokeColor=none;fillColor=none;fontFamily=Helvetica;fontSize=11;fontColor=default;labelBackgroundColor=default;" parent="78cTH-3rYRoWqbKTk_js-3" vertex="1">
          <mxGeometry x="1250" y="2450" width="70" height="30" as="geometry" />
        </mxCell>
        <mxCell id="TC_qHAJ1gJQiUCRcLyHj-568" style="edgeStyle=orthogonalEdgeStyle;curved=1;rounded=0;orthogonalLoop=1;jettySize=auto;html=1;exitX=0;exitY=0.5;exitDx=0;exitDy=0;entryX=1;entryY=0.5;entryDx=0;entryDy=0;strokeColor=default;align=center;verticalAlign=middle;fontFamily=Helvetica;fontSize=11;fontColor=default;labelBackgroundColor=default;resizable=0;endArrow=classic;" parent="78cTH-3rYRoWqbKTk_js-3" target="TC_qHAJ1gJQiUCRcLyHj-535" edge="1">
          <mxGeometry relative="1" as="geometry">
            <mxPoint x="1580" y="2925" as="sourcePoint" />
            <Array as="points">
              <mxPoint x="1550" y="2930" />
              <mxPoint x="1470" y="2930" />
              <mxPoint x="1470" y="2755" />
            </Array>
          </mxGeometry>
        </mxCell>
        <mxCell id="TC_qHAJ1gJQiUCRcLyHj-569" style="edgeStyle=orthogonalEdgeStyle;curved=1;rounded=0;orthogonalLoop=1;jettySize=auto;html=1;exitX=0;exitY=0.5;exitDx=0;exitDy=0;entryX=1;entryY=0.5;entryDx=0;entryDy=0;strokeColor=default;align=center;verticalAlign=middle;fontFamily=Helvetica;fontSize=11;fontColor=default;labelBackgroundColor=default;resizable=0;endArrow=classic;" parent="78cTH-3rYRoWqbKTk_js-3" target="TC_qHAJ1gJQiUCRcLyHj-540" edge="1">
          <mxGeometry relative="1" as="geometry">
            <mxPoint x="1580" y="2925" as="sourcePoint" />
            <Array as="points">
              <mxPoint x="1550" y="2930" />
              <mxPoint x="1470" y="2930" />
              <mxPoint x="1470" y="2925" />
            </Array>
          </mxGeometry>
        </mxCell>
        <mxCell id="TC_qHAJ1gJQiUCRcLyHj-571" style="edgeStyle=orthogonalEdgeStyle;curved=1;rounded=0;orthogonalLoop=1;jettySize=auto;html=1;exitX=0;exitY=0.5;exitDx=0;exitDy=0;entryX=1;entryY=0.5;entryDx=0;entryDy=0;strokeColor=default;align=center;verticalAlign=middle;fontFamily=Helvetica;fontSize=11;fontColor=default;labelBackgroundColor=default;resizable=0;endArrow=classic;" parent="78cTH-3rYRoWqbKTk_js-3" target="TC_qHAJ1gJQiUCRcLyHj-546" edge="1">
          <mxGeometry relative="1" as="geometry">
            <mxPoint x="1580" y="2925" as="sourcePoint" />
            <Array as="points">
              <mxPoint x="1550" y="2930" />
              <mxPoint x="1440" y="2930" />
              <mxPoint x="1440" y="3110" />
            </Array>
          </mxGeometry>
        </mxCell>
        <mxCell id="TC_qHAJ1gJQiUCRcLyHj-572" style="edgeStyle=orthogonalEdgeStyle;curved=1;rounded=0;orthogonalLoop=1;jettySize=auto;html=1;exitX=0;exitY=0.5;exitDx=0;exitDy=0;entryX=1;entryY=0.5;entryDx=0;entryDy=0;strokeColor=default;align=center;verticalAlign=middle;fontFamily=Helvetica;fontSize=11;fontColor=default;labelBackgroundColor=default;resizable=0;endArrow=classic;" parent="78cTH-3rYRoWqbKTk_js-3" source="TC_qHAJ1gJQiUCRcLyHj-470" target="TC_qHAJ1gJQiUCRcLyHj-565" edge="1">
          <mxGeometry relative="1" as="geometry">
            <mxPoint x="1580" y="2925" as="sourcePoint" />
            <Array as="points">
              <mxPoint x="1550" y="2925" />
              <mxPoint x="1550" y="2930" />
              <mxPoint x="1470" y="2930" />
              <mxPoint x="1470" y="3280" />
            </Array>
          </mxGeometry>
        </mxCell>
        <mxCell id="TC_qHAJ1gJQiUCRcLyHj-470" value="&lt;span style=&quot;font-size: 16px;&quot;&gt;&lt;b&gt;De&lt;/b&gt;&lt;/span&gt;&lt;div&gt;&lt;span style=&quot;font-size: 16px;&quot;&gt;&lt;b&gt;Aceleração&lt;/b&gt;&lt;/span&gt;&lt;/div&gt;" style="rounded=1;whiteSpace=wrap;html=1;" parent="78cTH-3rYRoWqbKTk_js-3" vertex="1">
          <mxGeometry x="1620" y="2890" width="120" height="60" as="geometry" />
        </mxCell>
        <mxCell id="TC_qHAJ1gJQiUCRcLyHj-533" value="funciona por" style="edgeStyle=orthogonalEdgeStyle;curved=1;rounded=0;orthogonalLoop=1;jettySize=auto;html=1;exitX=0;exitY=0.5;exitDx=0;exitDy=0;entryX=1;entryY=0.5;entryDx=0;entryDy=0;strokeColor=default;align=center;verticalAlign=middle;fontFamily=Helvetica;fontSize=11;fontColor=default;labelBackgroundColor=default;resizable=0;endArrow=classic;" parent="78cTH-3rYRoWqbKTk_js-3" source="TC_qHAJ1gJQiUCRcLyHj-535" target="TC_qHAJ1gJQiUCRcLyHj-536" edge="1">
          <mxGeometry x="0.1053" y="-5" relative="1" as="geometry">
            <mxPoint as="offset" />
          </mxGeometry>
        </mxCell>
        <mxCell id="TC_qHAJ1gJQiUCRcLyHj-534" value="Utilizado em" style="edgeStyle=orthogonalEdgeStyle;curved=1;rounded=0;orthogonalLoop=1;jettySize=auto;html=1;exitX=0;exitY=0.5;exitDx=0;exitDy=0;entryX=1;entryY=0.5;entryDx=0;entryDy=0;strokeColor=default;align=center;verticalAlign=middle;fontFamily=Helvetica;fontSize=11;fontColor=default;labelBackgroundColor=default;resizable=0;endArrow=classic;" parent="78cTH-3rYRoWqbKTk_js-3" source="TC_qHAJ1gJQiUCRcLyHj-535" target="TC_qHAJ1gJQiUCRcLyHj-537" edge="1">
          <mxGeometry relative="1" as="geometry" />
        </mxCell>
        <mxCell id="TC_qHAJ1gJQiUCRcLyHj-535" value="&lt;font style=&quot;font-size: 16px;&quot;&gt;&lt;b&gt;Relutância Variável&lt;/b&gt;&lt;/font&gt;" style="rounded=1;whiteSpace=wrap;html=1;" parent="78cTH-3rYRoWqbKTk_js-3" vertex="1">
          <mxGeometry x="1200" y="2725" width="190" height="60" as="geometry" />
        </mxCell>
        <mxCell id="TC_qHAJ1gJQiUCRcLyHj-536" value="Medição de uma tensão induzida numa bobina envoltória assim que a massa magnética se move sob influência da aceleração.&amp;nbsp;" style="rounded=1;whiteSpace=wrap;html=1;" parent="78cTH-3rYRoWqbKTk_js-3" vertex="1">
          <mxGeometry x="800" y="2685" width="220" height="60" as="geometry" />
        </mxCell>
        <mxCell id="TC_qHAJ1gJQiUCRcLyHj-537" value=" O sensor de segurança e conforto em ônibus." style="rounded=1;whiteSpace=wrap;html=1;" parent="78cTH-3rYRoWqbKTk_js-3" vertex="1">
          <mxGeometry x="890" y="2795" width="130" height="40" as="geometry" />
        </mxCell>
        <mxCell id="TC_qHAJ1gJQiUCRcLyHj-538" value="funciona por" style="edgeStyle=orthogonalEdgeStyle;curved=1;rounded=0;orthogonalLoop=1;jettySize=auto;html=1;exitX=0;exitY=0.5;exitDx=0;exitDy=0;entryX=1;entryY=0.5;entryDx=0;entryDy=0;strokeColor=default;align=center;verticalAlign=middle;fontFamily=Helvetica;fontSize=11;fontColor=default;labelBackgroundColor=default;resizable=0;endArrow=classic;" parent="78cTH-3rYRoWqbKTk_js-3" source="TC_qHAJ1gJQiUCRcLyHj-540" target="TC_qHAJ1gJQiUCRcLyHj-541" edge="1">
          <mxGeometry x="0.1053" y="-5" relative="1" as="geometry">
            <mxPoint as="offset" />
          </mxGeometry>
        </mxCell>
        <mxCell id="TC_qHAJ1gJQiUCRcLyHj-539" value="Utilizado em" style="edgeStyle=orthogonalEdgeStyle;curved=1;rounded=0;orthogonalLoop=1;jettySize=auto;html=1;exitX=0;exitY=0.5;exitDx=0;exitDy=0;entryX=1;entryY=0.5;entryDx=0;entryDy=0;strokeColor=default;align=center;verticalAlign=middle;fontFamily=Helvetica;fontSize=11;fontColor=default;labelBackgroundColor=default;resizable=0;endArrow=classic;" parent="78cTH-3rYRoWqbKTk_js-3" source="TC_qHAJ1gJQiUCRcLyHj-540" target="TC_qHAJ1gJQiUCRcLyHj-542" edge="1">
          <mxGeometry relative="1" as="geometry" />
        </mxCell>
        <mxCell id="TC_qHAJ1gJQiUCRcLyHj-540" value="&lt;font style=&quot;font-size: 16px;&quot;&gt;&lt;b&gt;MEMS&lt;/b&gt;&lt;/font&gt;" style="rounded=1;whiteSpace=wrap;html=1;" parent="78cTH-3rYRoWqbKTk_js-3" vertex="1">
          <mxGeometry x="1200" y="2895" width="190" height="60" as="geometry" />
        </mxCell>
        <mxCell id="TC_qHAJ1gJQiUCRcLyHj-541" value="Um microsistema eletromecânico, essas&lt;br&gt;técnicas criam estruturas de detecção&lt;br&gt;mecânica de tamanho microscópico,&lt;br&gt;normalmente em silício." style="rounded=1;whiteSpace=wrap;html=1;" parent="78cTH-3rYRoWqbKTk_js-3" vertex="1">
          <mxGeometry x="800" y="2855" width="220" height="60" as="geometry" />
        </mxCell>
        <mxCell id="TC_qHAJ1gJQiUCRcLyHj-542" value=" Monitoramento de vibrações." style="rounded=1;whiteSpace=wrap;html=1;" parent="78cTH-3rYRoWqbKTk_js-3" vertex="1">
          <mxGeometry x="890" y="2965" width="130" height="40" as="geometry" />
        </mxCell>
        <mxCell id="TC_qHAJ1gJQiUCRcLyHj-544" value="funciona por" style="edgeStyle=orthogonalEdgeStyle;curved=1;rounded=0;orthogonalLoop=1;jettySize=auto;html=1;exitX=0;exitY=0.5;exitDx=0;exitDy=0;entryX=1;entryY=0.5;entryDx=0;entryDy=0;strokeColor=default;align=center;verticalAlign=middle;fontFamily=Helvetica;fontSize=11;fontColor=default;labelBackgroundColor=default;resizable=0;endArrow=classic;" parent="78cTH-3rYRoWqbKTk_js-3" source="TC_qHAJ1gJQiUCRcLyHj-546" target="TC_qHAJ1gJQiUCRcLyHj-547" edge="1">
          <mxGeometry x="0.1053" y="-5" relative="1" as="geometry">
            <mxPoint as="offset" />
          </mxGeometry>
        </mxCell>
        <mxCell id="TC_qHAJ1gJQiUCRcLyHj-545" value="Utilizado em" style="edgeStyle=orthogonalEdgeStyle;curved=1;rounded=0;orthogonalLoop=1;jettySize=auto;html=1;exitX=0;exitY=0.5;exitDx=0;exitDy=0;entryX=1;entryY=0.5;entryDx=0;entryDy=0;strokeColor=default;align=center;verticalAlign=middle;fontFamily=Helvetica;fontSize=11;fontColor=default;labelBackgroundColor=default;resizable=0;endArrow=classic;" parent="78cTH-3rYRoWqbKTk_js-3" source="TC_qHAJ1gJQiUCRcLyHj-546" target="TC_qHAJ1gJQiUCRcLyHj-548" edge="1">
          <mxGeometry relative="1" as="geometry" />
        </mxCell>
        <mxCell id="TC_qHAJ1gJQiUCRcLyHj-546" value="&lt;font style=&quot;font-size: 16px;&quot;&gt;&lt;b&gt;Piezorresitividade&lt;/b&gt;&lt;/font&gt;" style="rounded=1;whiteSpace=wrap;html=1;" parent="78cTH-3rYRoWqbKTk_js-3" vertex="1">
          <mxGeometry x="1200" y="3080" width="190" height="60" as="geometry" />
        </mxCell>
        <mxCell id="TC_qHAJ1gJQiUCRcLyHj-547" value="Uma massa sísmica em uma viga em balanço instrumentada com strain gauges. A variação na resistência elétrica dos strain gauges é proporcional à tensão mecânica aplicada, que por sua vez é proporcional à aceleração" style="rounded=1;whiteSpace=wrap;html=1;" parent="78cTH-3rYRoWqbKTk_js-3" vertex="1">
          <mxGeometry x="560" y="3040" width="460" height="60" as="geometry" />
        </mxCell>
        <mxCell id="TC_qHAJ1gJQiUCRcLyHj-548" value=" Medição de choques mecânicos." style="rounded=1;whiteSpace=wrap;html=1;" parent="78cTH-3rYRoWqbKTk_js-3" vertex="1">
          <mxGeometry x="890" y="3150" width="130" height="40" as="geometry" />
        </mxCell>
        <mxCell id="TC_qHAJ1gJQiUCRcLyHj-563" value="funciona por" style="edgeStyle=orthogonalEdgeStyle;curved=1;rounded=0;orthogonalLoop=1;jettySize=auto;html=1;exitX=0;exitY=0.5;exitDx=0;exitDy=0;entryX=1;entryY=0.5;entryDx=0;entryDy=0;strokeColor=default;align=center;verticalAlign=middle;fontFamily=Helvetica;fontSize=11;fontColor=default;labelBackgroundColor=default;resizable=0;endArrow=classic;" parent="78cTH-3rYRoWqbKTk_js-3" source="TC_qHAJ1gJQiUCRcLyHj-565" target="TC_qHAJ1gJQiUCRcLyHj-566" edge="1">
          <mxGeometry x="0.1053" y="-5" relative="1" as="geometry">
            <mxPoint as="offset" />
          </mxGeometry>
        </mxCell>
        <mxCell id="TC_qHAJ1gJQiUCRcLyHj-564" value="Utilizado em" style="edgeStyle=orthogonalEdgeStyle;curved=1;rounded=0;orthogonalLoop=1;jettySize=auto;html=1;exitX=0;exitY=0.5;exitDx=0;exitDy=0;entryX=1;entryY=0.5;entryDx=0;entryDy=0;strokeColor=default;align=center;verticalAlign=middle;fontFamily=Helvetica;fontSize=11;fontColor=default;labelBackgroundColor=default;resizable=0;endArrow=classic;" parent="78cTH-3rYRoWqbKTk_js-3" source="TC_qHAJ1gJQiUCRcLyHj-565" target="TC_qHAJ1gJQiUCRcLyHj-567" edge="1">
          <mxGeometry relative="1" as="geometry" />
        </mxCell>
        <mxCell id="TC_qHAJ1gJQiUCRcLyHj-565" value="&lt;font style=&quot;font-size: 16px;&quot;&gt;&lt;b&gt;Efeito Piezoelétrico&lt;/b&gt;&lt;/font&gt;" style="rounded=1;whiteSpace=wrap;html=1;" parent="78cTH-3rYRoWqbKTk_js-3" vertex="1">
          <mxGeometry x="1200" y="3250" width="190" height="60" as="geometry" />
        </mxCell>
        <mxCell id="TC_qHAJ1gJQiUCRcLyHj-566" value="Uma propriedade exibida por&lt;br&gt;certos cristais em que uma tensão é&lt;br&gt;gerada pelo cristal quando deformado." style="rounded=1;whiteSpace=wrap;html=1;" parent="78cTH-3rYRoWqbKTk_js-3" vertex="1">
          <mxGeometry x="800" y="3210" width="220" height="60" as="geometry" />
        </mxCell>
        <mxCell id="TC_qHAJ1gJQiUCRcLyHj-567" value="  Monitoramento de vibrações" style="rounded=1;whiteSpace=wrap;html=1;" parent="78cTH-3rYRoWqbKTk_js-3" vertex="1">
          <mxGeometry x="890" y="3320" width="130" height="40" as="geometry" />
        </mxCell>
        <mxCell id="TC_qHAJ1gJQiUCRcLyHj-570" value="&lt;font style=&quot;font-size: 16px;&quot;&gt;Medido por&lt;/font&gt;" style="text;html=1;align=center;verticalAlign=middle;resizable=0;points=[];autosize=1;strokeColor=none;fillColor=none;fontFamily=Helvetica;fontSize=11;fontColor=default;labelBackgroundColor=default;" parent="78cTH-3rYRoWqbKTk_js-3" vertex="1">
          <mxGeometry x="1510" y="2905" width="100" height="30" as="geometry" />
        </mxCell>
        <mxCell id="TC_qHAJ1gJQiUCRcLyHj-589" value="&lt;font style=&quot;font-size: 16px;&quot;&gt;Com Medidores&lt;/font&gt;" style="text;html=1;align=center;verticalAlign=middle;resizable=0;points=[];autosize=1;strokeColor=none;fillColor=none;fontFamily=Helvetica;fontSize=11;fontColor=default;labelBackgroundColor=default;" parent="78cTH-3rYRoWqbKTk_js-3" vertex="1">
          <mxGeometry x="1830" y="1660" width="140" height="30" as="geometry" />
        </mxCell>
      </root>
    </mxGraphModel>
  </diagram>
</mxfile>
